<?xml version="1.0" encoding="utf-8"?>
<!-- Generator: Adobe Illustrator 19.0.1, SVG Export Plug-In . SVG Version: 6.00 Build 0)  -->
<svg version="1.1" id="Capa_1" xmlns="http://www.w3.org/2000/svg" xmlns:xlink="http://www.w3.org/1999/xlink" x="0px" y="0px"
	 viewBox="0 0 595.3 841.9" style="enable-background:new 0 0 595.3 841.9;" xml:space="preserve">
<style type="text/css">
	.st0{fill:#E9B5B5;}
	.st1{fill:none;}
	.st2{fill:#F8C7C7;}
</style>
<g>
	<g>
		<path class="st0" d="M320.2,169.4c-108.6,0-196.6,88-196.6,196.6s88,196.6,196.6,196.6s196.6-88,196.6-196.6
			S428.8,169.4,320.2,169.4z M320.2,544.8c-98.8,0-178.8-80-178.8-178.8s80-178.8,178.8-178.8c98.7,0,178.8,80,178.8,178.8
			S418.9,544.8,320.2,544.8z"/>
	</g>
	<g>
		<path class="st1" d="M320.2,169.4c-108.6,0-196.6,88-196.6,196.6s88,196.6,196.6,196.6s196.6-88,196.6-196.6
			S428.8,169.4,320.2,169.4z M320.2,544.8c-98.8,0-178.8-80-178.8-178.8s80-178.8,178.8-178.8c98.7,0,178.8,80,178.8,178.8
			S418.9,544.8,320.2,544.8z"/>
		<g>
			<g>
				<g>
					<path class="st2" d="M321.6,552.1c-1.7-0.1-1.1,1.2-1.4,1.4C323.1,553.1,321.5,551.8,321.6,552.1z"/>
					<polygon class="st2" points="349.5,546.9 349.1,547.5 352.9,545.5 					"/>
					<path class="st2" d="M375,540.9c-1.5-0.7-3.7,0.1-6.2,1c-2.5,1-5.2,2.1-7.6,2.2l-0.9-0.3l-1.7,2.2c1.4-0.4,2.8-0.9,4.3-1.3
						c1.5-0.5,3-0.9,4.4-1.5C370.3,542.1,373,541.2,375,540.9z"/>
					<path class="st2" d="M389.9,540.5c-1.1-0.4,2.6-1.8-3.2,1c0.3,0,0.4,0,0.6,0C387.9,541.2,388.6,540.9,389.9,540.5z"/>
					<path class="st2" d="M387.3,541.5C384.7,542.6,389.3,541.4,387.3,541.5L387.3,541.5z"/>
					<path class="st2" d="M399.2,535.9l-3.1,2.2c0.9,0.1,4-1.1,3-0.3C402.4,535.9,401.5,535.8,399.2,535.9z"/>
					<path class="st2" d="M401.7,533c0,0-0.4,0.3-0.8,0.6c-0.4,0.3-0.8,0.5-0.8,0.5C400.5,534.2,401,534.1,401.7,533z"/>
					<path class="st2" d="M396.7,536.4l3.4-2.3c-0.6-0.1-1-0.7-1.6,1C398.5,534.4,398.1,535.3,396.7,536.4z"/>
					<path class="st2" d="M394.4,537.1c-1,0.2-2.2,0.5-2.7,0.5c-0.5-0.1-0.4-0.3,1.2-1.4c-3.2,1.5-4.4,2.4-4,2.7
						c0.2,0.1,0.8,0.1,1.7-0.2C391.5,538.3,392.9,537.9,394.4,537.1z"/>
					<path class="st2" d="M375.6,538.4c0,0-0.7,0.1-1.4,0.1c-0.7,0.1-1.4,0.1-1.4,0.1l-2,1.3c0.5-0.3,1.8-0.5,2.9-0.8
						C374.9,539,375.8,538.7,375.6,538.4z"/>
					<path class="st2" d="M420.1,525.8c0-0.5-1.7-0.4-2.2-0.7c0,0-0.5,0.5-1,0.9c-0.5,0.5-1.1,0.9-1.1,0.9
						C417.2,526.6,419.6,525.3,420.1,525.8z"/>
					<path class="st2" d="M417.9,525.1l3-2.9C417.8,524.1,417.4,524.8,417.9,525.1z"/>
					<path class="st2" d="M401.2,530.6c0,0-1.3,1.2-2.6,2.2c-1.3,1.1-2.7,2.1-2.7,2.1s1.6-1.2,3.3-2.4c0.8-0.6,1.6-1.2,2.2-1.7
						c0.6-0.5,1-0.8,1-0.8L401.2,530.6z"/>
					<path class="st2" d="M433.2,516.9c0,0-0.3,0.6-0.6,1.1c-0.3,0.6-0.6,1.1-0.6,1.1s0.6-0.9,1.2-1.9c0.6-1,1.2-1.9,1.2-1.9
						L433.2,516.9z"/>
					<path class="st2" d="M441.3,510.3c-0.8,1.8,2.8-0.4,1.7,1.2c2.1-2,3.5-4.2,4.6-6.1C446.1,507.2,444.2,508.7,441.3,510.3z"/>
					<path class="st2" d="M449.6,502.1c-0.7,1-1.3,2.1-2,3.3C448.4,504.3,449,503.3,449.6,502.1z"/>
					<path class="st2" d="M426.8,518.5c0.4,0,1.3,0.3,3.4-0.8l-2.1-0.1C427.7,517.9,427.3,518.2,426.8,518.5z"/>
					<path class="st2" d="M428.1,517.6L428.1,517.6c1.5-1,2.5-1.7,2.9-2C430.6,515.9,429.8,516.5,428.1,517.6z"/>
					<path class="st2" d="M426.5,518.8c0.1-0.1,0.2-0.1,0.3-0.2C426.6,518.5,426.5,518.5,426.5,518.8z"/>
					<path class="st2" d="M411.1,526.6c1.7-1.8,5.6-4.9,0.9-3.5C411,524.8,413.7,523.9,411.1,526.6z"/>
					<path class="st2" d="M424,518.6c0,0-0.2,0.1-0.6,0.4c-0.4,0.2-0.8,0.5-1.3,0.7c-0.9,0.5-1.9,1-1.9,1c0.3,0.2,1.2,0.2,0.4,1.2
						c0,0,0.9-0.8,1.7-1.6c0.4-0.4,0.8-0.8,1.2-1.1C423.7,518.8,424,518.6,424,518.6z"/>
					<polygon class="st2" points="425.4,517.1 424,518.6 425.3,517.8 					"/>
					<path class="st2" d="M443.3,506.2c0.5-0.8,1.2-1.6,1.9-2.3c0.7-0.8,1.5-1.6,2.3-2.4c-1,0.8-1.9,1.6-2.9,2.4
						c-1,0.8-2,1.6-2.9,2.4C441.6,506.8,441.3,508,443.3,506.2z"/>
					<path class="st2" d="M436,511.9c0.1-0.1,0.2-0.2,0.3-0.3C436,511.6,435.8,511.7,436,511.9z"/>
					<path class="st2" d="M463.1,485c-0.1,0-0.3,0.1-0.4,0.1c0,0.1,0.1,0.1,0.1,0.2L463.1,485z"/>
					<path class="st2" d="M441.1,506.3c-1.6,1-2.2,2-2.7,3c1-1,2-2,3.2-3.1C441.6,506,441.6,505.9,441.1,506.3z"/>
					<path class="st2" d="M453.8,497.2c-0.9,0.5-1.8,1.2-2.8,1.8C452,498.6,453.8,497.7,453.8,497.2z"/>
					<path class="st2" d="M437,511.4c-0.1,0.1-0.1,0.1-0.2,0.2C437.4,511.5,437.3,511.4,437,511.4z"/>
					<path class="st2" d="M437,511.4c0.6-0.7,1-1.4,1.4-2.1c-0.8,0.8-1.6,1.5-2.2,2.3C436.5,511.5,436.7,511.5,437,511.4z"/>
					<path class="st2" d="M460.8,474.5c0.4,0.5,0,1.8-0.8,3.3c-0.4,0.8-1,1.6-1.7,2.3c-0.7,0.7-1.5,1.4-2.4,2
						c-1.9,3.6,2.7,4.2,6.7,2.9c-0.3-0.4-0.6-0.7,1.4-4.5c-1.4,0.8-7.2,6.2-5.7,2.8c1.6-2.3,2.4-3.1,3-3.6c0.7-0.4,1.3-0.5,2.4-1.4
						c-1.3,0.4-0.6-1.3,0-3.1c0.7-1.8,1.2-3.9,0-4.1c0,0-0.1,0.3-0.3,0.7c-0.2,0.4-0.5,1-0.8,1.5c-0.6,1.1-1.2,2.1-1.2,2.1
						C461.3,475.4,461.9,473.7,460.8,474.5z"/>
					<path class="st2" d="M457.2,491.2l-1.1,1.4c1.6-1.3,2.8-2.1,5.3-3.5c1.5-2.6,1.6-3.4,1.4-3.8c0,0-1.5,1.6-2.9,3.2
						c-0.7,0.8-1.5,1.6-2,2.2c-0.6,0.6-0.9,1-0.9,1L457.2,491.2z"/>
					<path class="st2" d="M450.6,498.2c0.1-1.8,2.6-5.3-0.2-4.4c-0.9,0.9-1.4,1.6-1.8,2.1c-0.4,0.5-0.5,0.9-0.7,1.2
						c-0.2,0.7-0.2,1.2-1.2,2.5c5.8-5.9-1.2,2.2,3.6-1.4c-1,1.3-2.1,2.4-3,3.4c1.2-0.9,2.4-1.8,3.5-2.6c-0.1,0-0.1,0.1-0.2,0.1l0,0
						c0,0,0,0,0,0c-0.4,0.1-0.5,0.1-0.2-0.1c0,0,0.1-0.1,0.1-0.1C450.6,498.7,450.6,498.4,450.6,498.2c1.9-1.5,0.5,0,0.1,0.6
						c0,0.1,0,0.2,0.1,0.2c0,0,0,0,0,0c0,0,0.3-0.4,0.9-1c0.5-0.6,1.2-1.4,1.8-2.2c1.3-1.6,2.6-3.3,2.6-3.3
						C454.7,493.7,453.3,495.4,450.6,498.2z"/>
					<path class="st2" d="M414.3,518.6c0.3,0,0.3,0,0.4,0.1C415,518.3,415.1,518.1,414.3,518.6z"/>
					<path class="st2" d="M417.5,517.4c-0.4,0.5-0.5,1.2-2.2,2.1c-1.6,0.6-0.3-0.5-0.6-0.8c-0.8,0.9-3,2.9,0.5,1.5l0.4-0.5
						c3-1.4,7.5-2.3,7.1-1.9C421.1,517.4,420,517.2,417.5,517.4z"/>
					<path class="st2" d="M434.4,508.4c0,0,0.3-0.3,0.8-0.7c0.5-0.4,1.1-1,1.7-1.7c1.2-1.2,2.4-2.5,2.4-2.5l-3.3,1.4l0.6,0.4
						C433.3,507.6,434.5,507.6,434.4,508.4z"/>
					<path class="st2" d="M464.1,484.8l0.4,1.6c0,0,0.3-1.1,0.5-2.2c0.2-1.1,0.5-2.2,0.5-2.2L464.1,484.8z"/>
					<path class="st2" d="M469.6,477.5l0.7,1c0,0,0.1-0.1,0.1-0.4c0.1-0.2,0.2-0.5,0.3-0.8c0.2-0.6,0.4-1.2,0.4-1.2L469.6,477.5z"/>
					<path class="st2" d="M232.7,218.3l-1.5,1.2C232,219,232.4,218.6,232.7,218.3z"/>
					<path class="st2" d="M244.8,211.9l0-0.7C244.4,211.8,244.3,212.1,244.8,211.9z"/>
					<path class="st2" d="M478.6,268c-0.7-3.1-1.1-6.9-2-5.8l-0.6,1.5C477.3,265.3,478.1,266.7,478.6,268z"/>
					<path class="st2" d="M355.3,191c0.2,0.2,0.5,0.4,0.7,0.5c0.8-0.3,1.5-0.5,2.1-0.8C357.3,190.8,356.3,190.9,355.3,191z"/>
					<path class="st2" d="M352.3,195.9l-3.5-1.5C349.6,194.9,350.7,195.4,352.3,195.9z"/>
					<path class="st2" d="M179.7,269.8c0,0,0,0.6-0.1,1.3c0,0.6,0,1.3,0,1.3C181.5,269.5,180.1,270.3,179.7,269.8z"/>
					<path class="st2" d="M504.2,392.5c0.8-2.5,1.3-4.5,1.6-6.3C504.7,389.2,503.2,391.5,504.2,392.5z"/>
					<path class="st2" d="M230.7,203.5c-1,0.8-1.3,1.3-1.1,1.6C230.6,204.3,231.1,203.7,230.7,203.5z"/>
					<path class="st2" d="M506.4,378.8c-0.2,0.4-0.3,0.9-0.4,1.3c0.1,1.9,0.2,3.8-0.2,6.1C506.6,384,507.1,381.3,506.4,378.8z"/>
					<path class="st2" d="M224.4,508.1c0.1,0.2,0.3,0.3,0.4,0.5C224.9,508.4,224.7,508.3,224.4,508.1z"/>
					<path class="st2" d="M295.6,548.8c-0.8,0-2.2-0.2-3.5-0.3C292.8,548.7,293.8,548.8,295.6,548.8z"/>
					<path class="st2" d="M488.9,446.6C488.2,448.4,489,447,488.9,446.6L488.9,446.6z"/>
					<path class="st2" d="M480.2,452.5c0.1-0.4,0-0.8-0.2-1C480.1,451.8,480.2,452.2,480.2,452.5z"/>
					<path class="st2" d="M498.6,359.9c0-0.1,0-0.1,0-0.2C498.4,360.3,498.4,360.2,498.6,359.9z"/>
					<path class="st2" d="M487.1,448.9c0.5-0.6,1-1.3,1.5-2C488.3,447.2,487.9,447.8,487.1,448.9z"/>
					<path class="st2" d="M487.8,448.9c-0.3,0.6-0.6,1-0.9,1.4C487,450.6,487.3,450.5,487.8,448.9z"/>
					<path class="st2" d="M490,444.1c-0.4,1-0.9,1.9-1.4,2.8c0.2-0.3,0.4-0.4,0.4-0.3C489.2,446.1,489.5,445.3,490,444.1z"/>
					<path class="st2" d="M146.9,389c0,0.1,0,0.3-0.1,0.4C147.6,391.1,147.4,390.3,146.9,389z"/>
					<path class="st2" d="M437.7,239.4c0.1,0,0.1,0.1,0.2,0.1c-0.1-0.1-0.1-0.2-0.2-0.2L437.7,239.4z"/>
					<path class="st2" d="M432.3,235.9c3.1,0.6,4.2,1.7,5.4,3.4c0,0,0.3-1.1,0.5-2.1c0.3-1.1,0.5-2.1,0.5-2.1s-1.6,0.2-3.2,0.4
						C433.8,235.7,432.3,235.9,432.3,235.9z"/>
					<path class="st2" d="M206.6,237.9l4.1-2c-1.4,2.5-2.9,4.2-3.6,5.1c-0.6,1-0.4,1.1,1.7,0.3c-0.6-0.9-0.1-2,1-3.3
						c1.1-1.3,2.6-2.8,4.3-4.1c1.7-1.4,3.3-2.7,4.4-4c1.2-1.2,1.8-2.3,1.3-3.2l2.9-1c-0.7,0.5-0.7,0.7-1.4,1.2
						c5.7-1.7,1.8-4.9,8.4-8.4c2.4-1.1,4.3-1.4,3-0.2l4.5-3.7c0.7-0.4,1.1-0.4,1.1-0.2c0,0.2-0.4,0.6-1.1,1c0,0,0.5-0.3,1.2-0.7
						c0.7-0.4,1.7-0.9,2.6-1.5c1.9-1.1,3.8-2.1,3.8-2.1l0,0.1c0.8-1.2,3-3.2,4.1-4.2c2.3-0.4-0.9,0.9-0.1,1.1c0,0,1-0.7,2-1.5
						c0.5-0.4,1-0.7,1.4-1c0.4-0.3,0.7-0.4,0.7-0.4c1.1,0.1,0.8,0.8-0.1,1.6c-0.9,0.8-2.5,1.8-4.1,2.4c2.9,0.9,3.7,0.3,5-0.8
						c1.4-1,3.3-2.6,8.2-3.2c0,0-0.3,0.1-0.6,0.3c-0.4,0.2-0.9,0.5-1.4,0.7c-1,0.5-2,1.1-2,1.1c1.8,0.6,3.4,0.2,5.2-0.1
						c1.9-0.4,3.9-0.9,6.6-1c-0.7-0.2-3.4-0.2-5.3-0.5c-2-0.3-3.2-0.9-0.9-2.2c1.5-0.2,3.4-0.7,5.9-2.3c0.5,1.4,3,0.3,6.3-0.7
						l0.3,1.9c1.7-0.8,2.4-1.3,3-1.9c0.5-0.6,0.9-1.1,1.9-1.8c4.1-0.8,5.3,0.5,6.5,1.6c3.3-0.4,2-0.8,0.9-1.3
						c-1.1-0.5-2.1-1.1,1.8-2c1.4-0.1,2.7-0.2,3.9-0.4c1.2-0.2,2.4-0.4,3.7-0.7c2.5-0.6,5-1.4,8.3-2.2c4,0.4-0.6,1.2,0.9,1.7
						l3.3-1.8c0.9,0,0.6,0.5,0.5,0.7c2.9-0.7,0.1-1.9,4.8-2.6c0.6-1,3-0.4,6,0.4c1.5,0.4,3.1,0.8,4.7,1c1.6,0.2,3.2,0,4.6-0.4
						c1.4,0.7-0.7,1.1-0.4,1.9c3.9-0.5,5.6-0.6,7.2-0.9c1.5-0.2,2.9-0.4,6.2-1.1c0,0,1.3,0.5,2.7,1c0.7,0.2,1.3,0.5,1.8,0.7
						c0.5,0.2,0.8,0.3,0.8,0.3c-3.8-2.1,1.6-2.9,6.4-3.5c-1.3-0.9-2.4-1.8-3.2-2.2c0,0,1.9,0.1,3.8,0.2c1,0,1.9,0.1,2.6,0.2
						c0.7,0.1,1.2,0.1,1.2,0.1c0.8,0.5-0.1,1-1.4,1.5c0.5,0,1-0.1,1.4-0.1c2.4,1.3,0.8,2.1-1.2,2.7c-0.8-0.6-1.6-1.2-2.3-1.8
						c-2,0.8-3.9,1.8-3.8,3c0.5-0.1,1.4-0.2,2.4-0.1c-0.5,0.2-0.9,0.5-0.7,0.7c0.2,0.3,1-0.1,2.3-0.3l1.1,2.5l0.6-0.7
						c0,0,2.2,0.9,4.4,1.7c1.1,0.4,2.2,0.9,3,1.3c0.8,0.4,1.4,0.6,1.4,0.6c1.8-0.1,3.5-0.2,5.3-0.3c1.8,0,3.6-0.1,5.5-0.1
						c1,0,2,0.1,3,0.1c1,0.1,2.1,0.3,3.2,0.4c1.1,0.2,2.3,0.4,3.5,0.7c1.2,0.3,2.5,0.6,3.8,1.1c-3.1,0.3-1.5,2.1-2.4,3.8
						c-0.9-1.5-3-2-5.4-2.6c-1.2-0.2-2.5-0.5-3.8-0.8c-1.3-0.3-2.7-0.6-3.9-1.1c2.7,1.1,1.8,1.8,1,1.8c0,0,0.6,0.1,1.5,0.2
						c0.5,0.1,1,0.1,1.6,0.2c0.6,0.1,1.2,0.2,1.8,0.4c2.5,0.5,4.9,1,4.9,1c-0.4,0.7,0,1.1,0.7,1.6c0.7,0.5,1.8,1.1,2.9,1.9
						c-0.3-1.8,1.6-1.5,4.1-0.6c0.6,0.2,1.3,0.5,1.9,0.7c0.7,0.3,1.3,0.6,2,0.9c1.3,0.6,2.5,1.1,3.6,1.3c-0.2,1-1.6,1.5-5.8-1
						c1.9,2.2,3.8,2.2,5.8,2.2c2-0.1,4,0,5.8,2.2c-1.1-0.6-1.5-1-2.2-0.8c1.4,0.3,3.6,1.5,5.1,2.6c1.5,1.1,2.4,2.2,1.5,2.1l-1-0.6
						c1.6,1.2,3.7,2.5,6,4c2.2,1.5,4.5,3.1,6.8,4.4c2.2,1.4,4.2,2.7,5.9,3.5c1.7,0.8,3,1.2,3.6,0.9c-0.2,0.3-2.8,1.7-3.5,1.8
						c0,0,1,0.1,2.6,0.4c1.5,0.3,3.6,0.6,5.7,1c2.1,0.4,4.1,0.8,5.7,1.2c1.6,0.4,2.6,0.6,2.6,0.6c-1.2,0.3-1.8,2.3-2.9,3.7
						c-1,1.4-2.5,2.2-5.3,0.4c0.6,0.8,1.2,1.6,2.2,2.5c0.9,0.9,2.2,1.9,3.8,3.1c-0.6-1.2,0-4.6,1.4-3.4c0.8,2.6,1.2,3.5,1.6,4.4
						c0.2,0.4,0.5,0.9,0.9,1.6c0.4,0.7,0.9,1.7,1.4,3.2c-0.9-1.8,3-2.5,5,0c-0.7,0-2.4,2.4-3.4,1.8c0,0,1.9,0.9,3.8,1.8
						c1,0.4,1.9,1,2.6,1.3c0.7,0.4,1.2,0.6,1.2,0.6c-1.7-1.1-2.4,1.5-2.1,3.4c0-0.5,1,0.8,2.2,2.4c1.1,1.6,2.4,3.6,3.1,4.3l-1.2-3.1
						c2.3,3.7,4.5,4.7,6.7,5.8c1.1,0.6,2.2,1.1,3.3,2c1.1,0.9,2.3,2.1,3.3,4c-1.1-0.6-5,0-3.2,4c0.6,0.2,1.7,0.5,2.9,1
						c1.3,0.5,2.9,1.1,4.4,2c1.6,0.8,3.2,1.9,4.8,3.1c1.6,1.2,3,2.7,4.1,4.4l-0.3,1.8c0,0,0.9,1.3,1.8,2.5c0.5,0.6,0.9,1.3,1.2,1.8
						c0.3,0.5,0.5,0.8,0.5,0.8c-1.8-1.3-5.2-3.8-8.5-6.4c-1.6-1.3-3.4-2.6-5-3.8c-1.6-1.2-3-2.4-4.1-3.3c0.8,3.2-0.6,1.3,1.6,5.5
						c-0.1,1.9-2.4-1.7-3.1-2.9c0,0,1.1,2.5,2.2,5c0.6,1.2,1.1,2.5,1.4,3.5c0.4,1,0.6,1.6,0.6,1.6c0.8-0.6,2.1,1.1,3.5,2.8
						c1.2,1.8,2.4,3.6,3.1,3.1c0,0-0.4-0.7-1-1.6c-0.3-0.5-0.6-1.1-1-1.7c-0.4-0.6-0.8-1.2-1.3-1.9c-1.7-2.5-3.4-5.1-3.4-5.1
						c0.8-0.7,2.8,0.3,5,2.4c1.1,1.1,2.3,2.4,3.3,4c1,1.6,1.9,3.4,2.5,5.3c0,2.2-3.9-0.2-4.5,0.3c0.5,0.4,1.6,2,2.3,3.7
						c0.8,1.7,1.4,3.4,1.3,3.8l-2.1-2.8c0.3,2.2,1.6,3.7,2.7,5.3c1.1,1.7,2,3.5,1.8,6.3c0.2,0.9,0,2.4-0.3,3.6
						c-0.2,1.3-0.3,2.3,0.3,2.3c1.6-3.4,8.3-5.9,10.5-4.2c0,0.3,0,3,0,5.7c0,0.7,0,1.4-0.1,2.1c-0.1,0.7-0.1,1.4-0.2,2
						c-0.1,1.2-0.3,2.3-0.5,2.9c-0.6,1.7-1.9,0.7-3.1-0.3c-1.2-1-2.5-2-3-0.6c0.6,0,1.5,1.5,1.9,2.2c-0.1,2-1.8-0.5-0.8,3.6
						c2.1,0.4,0.9,8.5,2,1.7c0.5,2,0.6,3.1,0.6,4.3c0,1.2,0,2.5,0.2,4.9c0.6-0.8,1.8,0.1,3,1.9c1.1,1.7,2.4,4.3,2.7,6.4
						c-0.5-0.2-1.2,0.8-1.5,1.2c0,2.2,0,4.1-0.1,5.8c-0.1,1.8-0.3,3.4-0.5,5c-0.2,1.6-0.3,3.2-0.5,4.9c-0.2,1.7-0.4,3.5-0.6,5.5
						c-0.5,0.7-1.5,4.5-2.2,2.8c0.2,1.2,0.8,2.3,0.5,4.7c-2.4,4.5,0.4-5.4-2.1-2.1c1.1,0.4,0.9,6.5,0.9,10c0.5-0.2,0.9-0.8,1.1-1.6
						c0.3-0.8,0.4-1.9,0.4-3.1c0.1-2.4-0.2-5-0.3-6.8c1.3,0.1,2.4,1.8,3.1,4.5c0.4,1.4,0.7,3,0.9,4.9c0.1,1.8,0.2,3.9,0.1,6
						c-0.3,3.4-0.9,4.1-1.4,4c-0.4-0.1-0.8-0.8-0.7-0.2c-0.8,3.1-1.1,5.4-1.2,7.2c-0.1,1.8,0,3.2,0.1,4.5c0.1,1.3,0.2,2.6,0,4.1
						c-0.2,1.5-0.9,3.3-2.2,5.7c-2.9,3.5-3.1-0.9-4.5-0.4c0.6-2.7,1.5-4.6,2.4-6.3c0.8-1.7,1.7-3.2,2.1-5l-2,4.2
						c0-1.8,0.6-5.4,1.6-7.2c-0.6,0.7-1.3,2.4-2,4.6c-0.4,1.1-0.8,2.3-1.2,3.6c-0.5,1.3-0.9,2.7-1.5,4.1c-0.5,1.4-1,2.9-1.6,4.4
						c-0.6,1.5-1.2,2.9-1.8,4.3c-0.6,1.4-1.2,2.8-1.9,4c-0.7,1.3-1.3,2.4-2,3.4c-0.2,1.8-0.9,4.7,0.2,3.7l1.1-2.9
						c2.4-2.1-0.8,6.1,1.4,2.8c-0.4,2.1-1,4.3-1.7,6.7c-0.4,1.2-0.8,2.4-1.4,3.6c-0.6,1.2-1.4,2.4-2.3,3.6l-2.1,0
						c0.5,0.2,2.9-2.8,3.2-4.5c-0.2,1.3-1.9,2.9-3.4,4.7c-0.8,0.9-1.5,1.8-1.9,2.7c-0.5,0.9-0.8,1.8-0.7,2.7c0,0,0.8-0.7,1.7-1.4
						c0.4-0.3,0.8-0.7,1.1-1c0.3-0.3,0.5-0.5,0.5-0.5c-0.3,1-0.7,2.1-1,3.3c-0.4,1.2-0.8,2.4-1.2,3.6c-0.5,1.2-1,2.4-1.6,3.6
						c-0.7,1.1-1.4,2.2-2.3,3.2c2.9-0.9,0.5-1.1,4.5-3c-2,0.6-0.1-2.2,1.6-4.9c0.9-1.3,1.7-2.6,2-3.4c0.2-0.8,0-1-1.3-0.2
						c2-1,3.1-2.4,4.2-3.9c1.1-1.5,2.3-3.1,4.3-4.9c-0.6-0.1-1.9,1.1,0.5-2.8c-0.1-0.3,0-0.8,0-1.1c0.1-0.1,0.1-0.2,0.2-0.3
						c-0.1,0.1-0.1,0.1-0.2,0.2c0-0.2,0-0.2-0.1,0.1c-0.7,0.8-1.4,1.5-1.9,1.6c-0.1-1.3,0.7-3.5,1.4-5.7c0.7-2.2,1.6-4.5,1.7-5.7
						c1.3-2.3,0.2,1.3,1.4,0.2c0,0,0.1-0.9,0.2-1.8c0.1-0.9,0.2-1.9,0.2-1.9c1.4,0.2,4.7-5.7,3.1,0.4l2.1-5.3c1-1.4,1.8-3.2,2.5-5
						c0.7-1.8,1.3-3.6,1.4-5c1-2.5,0.4-6.9,0.8-4.4c0,0,0.4-2.2,0.8-4.4c0.3-2.2,0.6-4.4,0.6-4.4l0.3,0c1.2-4.2,1.3-8.8,1.9-13.4
						c0.3-4.7,1-9.4,2.5-14.3c-0.1-1.5-0.1-3-0.1-4.7c-0.1-1.7,0-3.7,0.2-6.2l1.2-0.9c-0.1-1.9,0.1-4.8,0.2-7.3
						c0.1-2.6,0.2-4.9-0.5-5.7c0.7-1.1,1-2.8,1.1-4.8c0-1,0-2.1-0.1-3.3c-0.1-1.2-0.3-2.4-0.5-3.6c-0.4-2.5-0.8-5-1.3-7.3
						c-0.5-2.3-0.9-4.4-1.1-6.1l-1.5,0c-0.1-0.6-0.2-1.1-0.3-1.7c-0.1-0.6-0.3-1.1-0.4-1.7c-0.3-1.1-0.6-2.2-1-3.4
						c-0.4-1.1-0.7-2.3-1.1-3.5c-0.4-1.2-1-2.5-1.5-3.8l-1.2,0.7c-1.2-2.2-1.7-5.3-2.6-8.7c-0.4-1.7-0.8-3.5-1.2-5.3
						c-0.5-1.8-1.1-3.6-1.9-5.4c0.7,0.3,1.3,2.2,1.5,3.6c-0.1-2.4-0.8-4.7-1.7-7c-1-2.2-2.3-4.3-3.6-6.3c-1.2-2.1-2.7-4-3.8-5.9
						c-1.2-2-2.1-4-2.7-6c-1.5-1.6-2.1-3-2.5-4.4c0.1,0.2,0.2,0.3,0.3,0.4c-0.1-0.2-0.2-0.5-0.4-0.8c-0.2-0.9-0.5-1.9-0.9-2.8
						c0.2,0.9,0.4,1.7,0.7,2.5c-0.8-1.4-2.3-3.3-3.9-5.2l0.7-1.6c-0.1-0.2-0.2-0.3-0.3-0.4c-0.8-2.3-1.6-1.2-1.8,0.4
						c-0.8-0.9-1.7-1.6-2.5-2.1c0.4-1.4-0.7-2.6-1.8-3.8c-0.5-0.6-1.1-1.3-1.5-2c-0.4-0.7-0.7-1.4-0.6-2.3c-1-0.3-3-2.5-5.1-4.5
						c-2.2-2-4.6-3.8-5.9-3.4c0.2-0.3-0.1-0.9,0.7,0c-1.5-2.2-3.1-4.3-5.2-5.5l0.6-2.1c0,0-1.4-0.6-2.9-1.2
						c-1.5-0.5-2.9-1.1-2.9-1.1c-1.7-3.2-2.4-4.7,1.1-3.3c-1.9-1.1-3.2-1.9-4.2-2.5c-1-0.6-1.7-1-2.3-1.5c-1.3-0.8-2.5-1.6-5.9-3.1
						l1-0.7c-2-1.5-6.2-2.8-6.8-4.5c-0.8-1.3-2.7-3-5.1-4.9c-0.6-0.5-1.3-1-2-1.5c-0.7-0.5-1.5-1-2.2-1.5c-1.6-1-3.2-2.1-4.9-3.2
						c-7-4.2-15.2-8.6-21.6-12.4c0.6,2.2-0.8,1.1-2.6-0.2c-1.8-1.2-4-2.7-4.7-1.6c-0.5-1.1-2.3-2.3,0.2-2.1
						c-0.9-0.3-1.8-0.5-2.5-0.8c-0.8-0.3-1.5-0.5-2.2-0.8c-1.4-0.5-2.6-1.1-3.8-1.5c-2.4-1-4.6-1.6-7.4-1.2c-0.6-1,1.9-0.7,1.3-1.4
						c-0.6,0-2.5,0-3.1-0.7c-0.6-0.7,1.3-0.4,2.5-0.4c-1.9-0.5-3.4-0.7-4.6-0.8c-1.2,0-2.1,0.2-2.9,0.6c-1.4,0.6-2,1.8-2.6,2.9
						c-1.7-1-3.1-1.6-4.4-1.7c-1.3-0.1-2.6,0.1-4.1,0.6c-1.2-1-3.3-2.2,1.5-1.6c-0.7-0.2-2-0.5-3.6-0.8c-0.8-0.2-1.7-0.4-2.6-0.6
						c-0.9-0.2-1.9-0.3-2.8-0.4c-3.8-0.5-7.2-0.7-7.5,0.3c-0.8-0.5-3.7-0.4-4.4-0.3c-1.5-0.1-2.6-0.3-3.6-0.4
						c-1-0.1-1.8-0.1-2.6-0.2c-1.6-0.1-3.2-0.1-6.1-0.1l1.6,0.4c-2.3,2.2-4.8,0.5-9.5,0.9l0.1-0.2c-2.7-0.4-4.4-0.4-5.5-0.3
						c-1.1,0.1-1.7,0.2-2.2,0.3c-0.6,0.1-1.1,0.2-2.2,0.3c-0.5,0-1.2,0-2.1,0c-0.9,0-2,0-3.3-0.1l0.7,1.4c-0.3,1.6-2.7,1.4-5.7,1.1
						c-3-0.2-6.8-0.5-9.8,0.7c0,0,0.6,0.1,1.2,0.2c0.6,0.1,1.2,0.2,1.2,0.2c-1.6,0.8-4,0.3-6.6-0.4c-2.6-0.7-5.3-1.5-7-1.2
						c-0.8,0,1-0.8,2-1.2c-9.2,0.7-0.7,2.1-7,4.4c-1.5-0.6,0.8-3-3.6-1.8c-1.2,0-4.1,1.8-7.4,3.7c-1.6,1-3.4,2-5.2,2.8
						c-0.9,0.4-1.8,0.7-2.6,1c-0.8,0.3-1.7,0.5-2.5,0.6c1.6,0.2,3.1,0.3,0.5,2.1c-1.1,0.6-2.4,1-3.8,1.4c-0.7,0.2-1.5,0.4-2.3,0.6
						c-0.8,0.2-1.5,0.5-2.3,0.7c-3,1-5.9,2.2-7.2,4.4c-0.6,0.1-0.9,0.1-1-0.1c-0.7,0.6-1.7,1.3-2.7,2.1c-1.1,0.8-2.2,1.6-3.3,2.5
						c-2.1,1.8-4.1,3.6-4.6,4.7c-1.4-0.6-3.1,0.1-5.1,1.3c-1.9,1.3-4,3.1-5.8,5c-1.8,1.9-3.6,3.6-5,4.8c-1.4,1.2-2.6,1.6-3.3,0.8
						c0,0-0.5,0.5-1.3,1.2c-0.8,0.7-1.8,1.6-2.8,2.6c-2,2-4,4-4,4l-0.1-0.5c-0.7,0.6-1.3,1.1-1.8,1.7c-0.5,0.5-1,1.1-1.4,1.6
						c-0.8,1-1.5,1.9-2,2.7c-1,1.6-1.5,2.9-1.9,4.2c-1.3,1-0.8-0.2-0.9-0.4c-3.8,3.6-5.8,5.7-7.3,7.9c-0.7,1.1-1.4,2.2-2,3.6
						c-0.7,1.3-1.3,3-2.1,5.1l-1.7-0.1c-0.2,0.6-0.9,1.6-2,2.9c-1.1,1.3-2.4,3-3.9,4.8c-0.7,0.9-1.5,1.9-2.3,3
						c-0.7,1.1-1.4,2.2-2.1,3.3c-0.7,1.2-1.3,2.3-1.9,3.5c-0.6,1.2-1,2.5-1.4,3.7c-0.1-0.2-0.3-0.5-0.1-1.3
						c-1.9,5.5-5.8,11.3-8.6,16.7c-0.7,1.4-1.3,2.7-1.9,3.9c-0.3,0.6-0.5,1.2-0.7,1.8c-0.2,0.6-0.4,1.2-0.5,1.8
						c-0.5,2.3-0.5,4.2,0.5,5.6c0,0-0.1,0.5-0.2,1.2c-0.1,0.7-0.2,1.7-0.3,2.6c-0.2,1.9-0.4,3.8-0.4,3.8c1.5-4.6,2-4.1,2.3-2.9
						c0.3,1.2,0.5,3.1,1.5,1.3c-0.4,1.9-1.4,4.1-2.3,5.3c-0.8,1.2-1.4,1.4-1-0.9l0.5-0.6c-2.4-2.4-3.8,11.5-5.5,10.9
						c-1.8,9.5-3.2,18.9-4,28.3c-0.2,2.4-0.3,4.7-0.5,7c-0.1,2.3-0.1,4.7-0.1,7c0,1.2,0,2.3,0,3.5c0.1,1.2,0.1,2.3,0.2,3.5
						c0.1,1.2,0.1,2.3,0.2,3.4c0.1,1.1,0.1,2.3,0.3,3.4c0,0,0.5-0.6,1-1.2c0.5-0.6,1-1.1,1-1.1s0,0.4,0.1,1c0.1,0.6,0.1,1.4,0.2,2.2
						c0.2,1.6,0.3,3.1,0.3,3.1c-0.3,1.7-1.4,2.5-1.9-2.1c-0.5,1.3,0,3.1,0.7,4.7c0.6,1.5,1.6,2.7,1.9,2.8c0.3,4.4-0.4,3.7-1.3,2.2
						c-0.8-1.5-1.7-3.8-1.5-2.5l0.8,3.6l0.1-0.9c0.7,1.4,1.3,2.1,1.8,3.2c0.3,0.5,0.5,1.1,0.7,1.9c0.3,0.8,0.5,1.8,0.8,3.1
						c0.3,3.4-0.9,2-0.7,3.4c-0.2,0-0.1,0.5,0.4,2c0,0,0.1,0.5,0.3,1.2c0.2,0.7,0.4,1.7,0.7,2.7c0.5,1.9,1,3.9,1,3.9l0.8-3.6
						c0.9,1.6,1.4,3.4,1.8,4.3c0.4,0.9,0.6,0.9,1.1-1.2c-0.7,3,1.4,10.2,4.1,16.8c0.6,1.7,1.4,3.3,2.1,4.8c0.7,1.5,1.4,3,2,4.2
						c1.2,2.5,2.2,4.4,2.3,5.3c0.8,1,1.6,1.9,2.3,3c0.8,1,1.5,2,2.2,3.1c1.4,2.2,2.7,4.6,4.3,7.1c-0.5-1.5,0.7-3.2,3.2,1.2
						c-1.1,0.2-1.4,0.8-1.3,1.7c0.1,0.9,0.7,2.2,1.5,3.6c0.8,1.4,1.7,2.9,2.5,4.4c0.4,0.7,0.7,1.5,0.9,2.2c0.3,0.7,0.4,1.4,0.5,2
						c-0.4-2.1,2,0.8,4.3,3.4c1.1,1.3,2.3,2.4,3.1,2.9c0.8,0.5,1.1,0.2,0.7-1.3c2.6,3.5-1,1.2,0.5,4.3c1,0.8,1.9,1.8,2.9,2.7
						c1,0.9,2,1.9,2.9,2.9c1,1,1.9,2.1,2.9,3.2c1,1.1,2,2.2,3.1,3.3c1,1.1,2,2.3,3.1,3.4c1.1,1.1,2.2,2.2,3.4,3.3
						c2.2,2.2,4.8,4.2,7.4,6.1c0.5-0.3-0.7-2.3,1.9-1.2c0,0,0.2,0.4,0.6,1c0.3,0.6,0.8,1.4,1.3,2.1c1,1.5,2,3,2,3
						c1.1,0.6,2,0.3,3,0.4c0.5,0,1,0.2,1.5,0.5c0.6,0.4,1.2,1,1.9,2c-0.3-0.7-0.8-1.8,0.8-1c9.8,7.9,21.6,13.4,33.6,17.8
						c12.1,4.4,24.4,7.8,36.7,12.2c-3.3-1.6-1-1.3,1.7-0.9c-1.7-0.5,0.2-1.3,0-2c0,0,0.6,0.2,1.6,0.5c1,0.3,2.2,0.7,3.5,1.1
						c1.3,0.4,2.6,0.8,3.6,1.1c0.5,0.2,0.9,0.3,1.2,0.3c0.3,0.1,0.5,0.1,0.5,0.1c1.1-0.9,3.9-0.7,6.7-0.5c1.4,0.1,2.7,0.1,3.8,0
						c1.1-0.1,1.9-0.3,2.2-0.8l-3.4,0.3c2.3-1.1,0.7-2.3-1.2-3.7c-1.9-1.5-4.2-3.1-3.8-4.5c-1.2,0.5-2.6,0.5-4.2,0.2
						c-1.5-0.3-3.1-1-4.8-1.6c-0.8-0.3-1.7-0.6-2.6-0.9c-0.9-0.2-1.8-0.5-2.7-0.7c-1.9-0.4-3.8-0.4-5.9,0.1
						c-1.6-0.9,1.6-0.7,0.8-1.5c-2.2,0.9-4.6,0.6-8.8-1l0.6-0.2c-0.8-0.2-1.5-0.3-2.2-0.5c-0.7-0.2-1.4-0.4-2-0.6
						c-1.3-0.4-2.5-0.8-3.7-1.1c-2.4-0.7-4.5-1.6-6.6-2.5c-1.1-0.5-2.1-0.9-3.2-1.4c-1.1-0.5-2.2-1.1-3.4-1.7
						c-2.4-1.2-5-2.4-8.1-4.1l0.4,1.7c-2.7-1.4-3-2.1-4.2-3c-4.1,0.5,7.6,3.6,3.8,4.4c-0.6-1.1-2.1-2.2-4.1-3.2
						c-1.9-1.1-4.2-2.4-6.5-3.5c-0.6-0.3-1.1-0.6-1.7-0.9c-0.5-0.3-1.1-0.6-1.6-1c-1-0.6-2-1.3-2.8-1.9c-1.7-1.2-2.8-2.4-2.9-3.5
						c-3.8-2.5,0.3,2.1-3.6-0.4l-0.5-1.4l-1.6,0.3c-1.2-0.9-2-1.8-2.4-2.6c-0.4-0.8-0.5-1.4-0.3-1.7c0.5,0.5,1.8,1,2.5,1.4
						c-1.3-1.6-3.5-3.1-5.6-4.3c-2.1-1.3-3.8-2.4-4.3-2.9c0,0,0.8,0.8,1.6,1.6c0.4,0.4,0.8,0.8,1.1,1.1c0.3,0.3,0.5,0.5,0.5,0.5
						c-1.3-0.9-2.6-1.8-3.9-2.8c-1.3-1-2.7-1.9-3.9-3c-2.6-2.2-5.2-4.4-7.7-6.8c-1.3-1.2-2.5-2.3-3.8-3.5c-1.2-1.2-2.4-2.4-3.6-3.5
						c-2.5-2.3-4.7-4.6-7-6.6l0.1,1.1c-0.9-0.8-1.6-1.5-2.2-2.1c-0.6-0.6-1.1-1.2-1.5-1.7c-0.8-1-1.3-1.8-1.8-2.7
						c-0.5-0.9-1-1.7-1.8-2.9c-0.7-1.2-1.8-2.7-3.4-4.7l0.3,0.2c-1.8-1.2-3.5-3.4-5-5.8c2.1,1.7-1.3-4.9,1.2-2.5
						c-0.4-0.5-0.8-0.9-1.1-1.3c-0.3-0.4-0.6-0.8-0.9-1.1c-0.5-0.7-0.9-1.2-1.3-1.6c-0.7-0.8-1.1-1.2-1.5-1.4
						c-0.4-0.3-0.7-0.4-1.3-0.8c-0.6-0.4-1.5-0.9-2.8-2.2l0.3-1.9c-1-0.8-1.6-1.2-2.3-1.9c-0.7-0.7-1.5-1.8-2.7-4.1
						c2.6,3.4,0.2-3.7,3.3,0.1c-0.5-2.7-1.4-4.9-2.3-6.7c-0.9-1.9-1.7-3.4-2.6-4.9c-0.8-1.4-1.6-2.7-1.9-4c-0.4-1.3-0.4-2.6,0-4
						c-2.2-1.8-1.9,0.5-1.2,3c0.7,2.5,2,5.1,1.1,3.9c0,1.3-1,0.5-2-1c-1-1.5-2-3.8-2.4-5.4c-0.5-1.7-0.1-3.4,0.3-5.7
						c0.2-1.2,0.3-2.5,0.2-4c0-0.8-0.1-1.6-0.3-2.5c-0.1-0.9-0.3-1.9-0.5-2.9c0.2,0.8,0.4,0.8,0.6,1.7c0-1.7-0.6-3.1-1.2-4.7
						c-0.3-0.8-0.6-1.6-0.7-2.5c-0.1-0.9-0.2-1.8,0-2.8c-2.2-1.8-0.8-5-3.2-5.3l1.9,7.7c-0.7-2.1-1.9-4.1-3-6.6
						c-1-2.4-1.7-5.3-1.5-9.1c0.6,0.5,1.5,2.7,2,4.1c0.2-1.1,0-2.1-0.3-3.2c-0.2-1-0.5-2.1-0.2-3.2c0.6,0.1,1,0.8,1.3,1.7
						c0.3,1,0.5,2.3,0.7,3.7c0.2,1.4,0.4,3,0.7,4.5c0.4,1.5,0.9,2.9,1.5,4c0.3-1.2-0.6-3.3-1-5c-0.4-1.6-0.6-2.7,0.8-1.7
						c-1.8-1.5-2-3.6-2.1-6c0-2.4,0.1-5.1-1.4-7.9l1.5,0.3c-0.3-0.9-1-2.8-1-4.4l1.9,3c-0.8-2.3-0.6-4.6-0.2-6.8
						c0.3-2.2,1-4.4,0.6-6.6c-0.1,4.6-0.5,5.2-1.1,5c-0.6-0.1-1.3-1-1.8,1c-0.3-1.5-0.4-2.7-0.4-3.7c0-1,0.1-1.8,0.2-2.5
						c0.3-1.4,0.8-2.2,1.4-3.1c0.5-0.9,1.2-1.8,1.7-3.3c0.5-1.5,0.9-3.6,1-6.8c0,1.7-1.4,6.4-1.8,3.7c0.3-1.2,0.5-2.6,1-3.9
						c0.4-1.3,0.9-2.4,1.4-3.1c0.8-8.5-1.6,1.1-2-2.6c2-2.7-0.1-4.3,0-8.1l1.4,0.2c0.3-1.2,0.5-2.1,0.7-2.9c0.1-0.7,0.2-1.3,0.2-1.7
						c0-0.9-0.3-1.2-0.6-1.6c-0.6-0.7-1.2-1.2,0.4-5.4l1.1,4.1c0,0,0.1-1.1,0.3-2.3c0.1-0.6,0.1-1.2,0.2-1.6
						c0.1-0.4,0.1-0.7,0.1-0.7l1.3,1.3c0.1-2.5,0.3-4.2,0.7-5.7c0.2-0.8,0.5-1.5,0.8-2.4c0.3-0.9,0.8-1.8,1.3-2.9
						c-1.3,0.8-2.3-1.4-0.9-5.6c1.8-2.5,0.7,2,2.7-3.8c0.2,0.8,0.4,1.7,0.3,2.6c-0.1,0.5-0.2,0.9-0.4,1.4c-0.2,0.5-0.6,1-1.1,1.5
						c0.4,0.4,0.4,1.6,0.8,2c1.9-2.7,3-7.3,3.8-9.4c-0.4,0.8-0.8,1.7-1.2,2.1c0,0,0.3-2.2,0.7-4.5c0.5-2.2,0.9-4.5,0.9-4.5
						c1.1-1.1,1,0.1,0.9,1.3c0.3-0.9,0.4-1.6,0.6-2.5c0.2-0.9,0.4-1.9,0.9-3.1c0.8,1.1,1.9,1.5,0.9,5.1c0,0,0.1-0.5,0.4-1.3
						c0.2-0.8,0.5-1.8,0.8-2.8c0.7-2,1.3-4,1.3-4c0.4-0.1,1.2-0.9,1.9-1.5c0.7-0.6,1.3-1,1.2-0.4c1.5-1.8,2.3-4.6,3.4-7.5
						c0.6-1.4,1.2-2.9,1.9-4.3c0.7-1.4,1.5-2.8,2.7-3.9c0-0.4,0.2-1,0.8-2.2c0.9-1.1,1.8-2.2,2.8-3.3c1-1,2-2,2.9-3.1
						c1-1.1,1.9-2.2,2.8-3.5c0.9-1.2,1.8-2.6,2.7-4.1c0,0,1-0.4,2.1-0.8c1-0.4,2.1-0.7,2.1-0.7c1.7-2.1,0.3-1.6-0.8-1.4
						c-1.1,0.2-2,0,0.9-3.6c2-2.6,2.7-2.7,3.2-2.3c0.5,0.4,0.7,1.2,1.7,0.7c0.8-1.5,1.8-3.5,3.3-5.6c1.5-2.1,3.7-4,6.4-5.2
						C209.2,235.8,207.8,236.6,206.6,237.9z M263.4,203.4c-0.6,0.4-1.4,1-2.2,1.4c-0.8,0.5-1.6,0.8-2.2,0.6c0.4-1,0.9-1.5,1.6-1.7
						C261.3,203.5,262.2,203.6,263.4,203.4z M364.6,196c-1.1,0.2-2.5-0.3-4-1.3C361.8,194.9,363.2,195.2,364.6,196z M495.8,426.6
						c0-0.1,0-0.1,0-0.2C497.3,423.7,496.8,424.7,495.8,426.6z M493,432.5c0,0.7,0.2,0.7,0.4,0.5c-0.2-0.6,0.3-1.9,1-3.4
						C494,429.9,493.4,430.6,493,432.5z M141,410.2l0.1-1.3C142.1,411.6,141.6,410.9,141,410.2z"/>
					<path class="st2" d="M352.7,195.4c-0.3-0.3-0.4-0.6-0.4-0.9C351.7,194.7,351.7,194.9,352.7,195.4z"/>
					<path class="st2" d="M179.8,269.3c0,0-0.1,0.1-0.1,0.2c0,0.1,0,0.2,0.1,0.3L179.8,269.3z"/>
					<path class="st2" d="M490.5,336.1c0-1.3,0.1-2,0.3-2.5C490.4,333.6,490.2,334.2,490.5,336.1z"/>
					<path class="st2" d="M479.9,464.5c0,0,0.1-0.2,0.3-0.6c0.2-0.3,0.4-0.8,0.6-1.3c0.4-1,0.9-1.9,0.9-1.9c-1,1.8-1.6,2.3-2.3,3
						C479.7,463.8,480.6,463.4,479.9,464.5z"/>
					<path class="st2" d="M451.3,487.3c-0.3,0.5-0.8,0.9-1.1,1.5l0.6,0.3C452.5,487.3,453.3,485.7,451.3,487.3z"/>
					<path class="st2" d="M473.8,465.1c-0.6-0.2-1.2,0.3-1.7,1.2c-0.3,0.4-0.6,1-0.9,1.5c-0.3,0.6-0.7,1.2-1,1.8
						c0.1-0.1,0.2-0.3,0.3-0.4c0.5,0.8,1,0.5,1.6-0.3C472.6,468,473.2,466.6,473.8,465.1z"/>
					<path class="st2" d="M469.8,470.2c-0.5,0.8-1,1.5-1.5,2.2C468.6,473,469,471.5,469.8,470.2z"/>
					<path class="st2" d="M490.6,440.4c-0.9,1.1,1.1,1.4,0.3,1.9c0.4,1,0.9-1.3,1-2.9c0.1-0.8,0-1.5-0.2-1.5
						C491.6,438,491.2,438.6,490.6,440.4z"/>
					<polygon class="st2" points="469.2,464.9 471,464.8 470.8,462.9 					"/>
					<path class="st2" d="M481.2,446.2l-2.4,3.8c0.3,0.1,0.1,0.6-0.1,1.3C480,448.9,481.7,446.3,481.2,446.2z"/>
					<path class="st2" d="M478.7,451.3c-0.7,1.3-1.4,2.5-1.6,3.3C477.5,453.9,478.3,452.5,478.7,451.3z"/>
					<path class="st2" d="M472.1,459.5c0,0,0.2-0.2,0.5-0.5c0.2-0.2,0.5-0.5,0.5-0.5l1.7-2.7c0,0-0.6,0.9-1.3,1.8
						C472.8,458.6,472.1,459.5,472.1,459.5z"/>
					<path class="st2" d="M497,400.6l0.4-4.9c-0.4-0.6-1,0.7-1.1,2.5C496.6,399.4,496.4,401.2,497,400.6z"/>
					<path class="st2" d="M489.6,413.9c0.7-1.2,1-1.2,1.7-1.7l-1.8-0.6L489.6,413.9z"/>
					<path class="st2" d="M492.5,400.2c-0.4-0.6-0.2-7.1-1.2-1.1c0.2,0.3,0.2,1.6,0.3,2.4c0,0.4,0.1,0.6,0.2,0.5
						C492,401.8,492.2,401.3,492.5,400.2z"/>
					<polygon class="st2" points="494.1,327.9 494.4,329.1 497.3,328.3 					"/>
					<path class="st2" d="M463.1,272.6c2.4,5.1,2.3,0.1,4.2,4.8c0.6,0.4,0.3-0.6-0.1-1.6c-0.4-1-0.8-1.9-0.2-1.5
						C464.5,272,463.9,270.3,463.1,272.6z"/>
					<path class="st2" d="M467,274.4c0.4,0.4,0.8,0.8,1.3,1.2C467.6,274.9,467.2,274.6,467,274.4z"/>
					<path class="st2" d="M309.5,551.8c0,0,0.2,0.1,0.6,0.1c0.4,0.1,0.8,0.2,1.3,0.3c1,0.2,1.9,0.4,1.9,0.4l-2.5-1.1
						c0,0-0.3,0.1-0.7,0.2C309.9,551.8,309.5,551.8,309.5,551.8z"/>
					<path class="st2" d="M317,549.8l0.9,2l2.3-1.7C319.3,550.1,317.7,550.3,317,549.8z"/>
					<path class="st2" d="M273.9,204.2l0.1-0.5c-0.7-0.3-1.5-0.1-3.1,0.2L273.9,204.2z"/>
					<polygon class="st2" points="229.9,222.3 230.6,221.9 228.4,221.2 					"/>
					<path class="st2" d="M200.3,249.1c0.6-0.6,1.1-1.3,1.7-1.9c0.6-0.7,1.2-1.3,1.8-1.9C201.4,247.9,198.4,247.9,200.3,249.1z"/>
				</g>
			</g>
		</g>
		<g>
			<g>
				<g>
					<path class="st2" d="M321.6,176.7c-1.8-0.2-1.1,1.1-1.4,1.3C323.1,177.9,321.5,176.4,321.6,176.7z"/>
					<polygon class="st2" points="350.9,176.3 350.3,176.7 354.8,176.3 					"/>
					<path class="st2" d="M377.7,182.6c-0.9-1.4-3.4-2-6.1-2.5c-1.4-0.2-2.8-0.5-4.2-0.7c-1.4-0.2-2.8-0.5-3.9-1l-0.7-0.7l-2.5,1.2
						c1.5,0.3,3,0.5,4.7,0.7c1.6,0.2,3.3,0.4,4.8,0.8C372.8,181.1,375.8,181.7,377.7,182.6z"/>
					<path class="st2" d="M389.8,191.9c-0.5-1.1,3.2,0.5-3-1.5c0.3,0.2,0.3,0.3,0.5,0.4C387.8,191,388.5,191.3,389.8,191.9z"/>
					<path class="st2" d="M387.2,190.8C384.6,189.9,388.7,192.2,387.2,190.8L387.2,190.8z"/>
					<path class="st2" d="M399.5,195.5l-3.7-0.9c0.5,0.8,3.5,2.2,2.2,2.1C401.6,197.9,401.1,197.1,399.5,195.5z"/>
					<path class="st2" d="M403.3,195.6c0,0-0.5-0.2-0.9-0.3c-0.5-0.1-1-0.3-1-0.3C401.7,195.4,402.1,195.6,403.3,195.6z"/>
					<path class="st2" d="M397.4,193.9l4,1.1c-0.3-0.5-0.1-1.2-1.8-0.6C400.2,194,399.2,194.2,397.4,193.9z"/>
					<path class="st2" d="M395.4,192.7c-0.9-0.7-1.9-1.3-2.3-1.7c-0.4-0.4,0-0.6,1.9-0.1c-3.4-1.3-5-1.4-4.9-0.9
						c0.1,0.2,0.5,0.6,1.4,1.1C392.5,191.5,393.8,192,395.4,192.7z"/>
					<path class="st2" d="M379.7,181c0,0-0.6-0.4-1.3-0.8c-0.6-0.4-1.3-0.7-1.3-0.7l-2.6,0c0.7,0,2,0.5,3.1,1
						C378.7,180.9,379.7,181.3,379.7,181z"/>
					<path class="st2" d="M419.3,207.5c0.4-0.3-0.4-1.7-0.3-2.4c0,0-0.6-0.3-1.3-0.5c-0.7-0.2-1.3-0.5-1.3-0.5
						C417.4,205.1,419.5,206.9,419.3,207.5z"/>
					<path class="st2" d="M419,205.2l3.9,1.6C419.8,204.7,419,204.6,419,205.2z"/>
					<path class="st2" d="M405,193.8c0,0-1.7-0.5-3.5-0.8c-1.7-0.3-3.5-0.7-3.5-0.7s2,0.5,4.1,0.9c1,0.2,2,0.5,2.8,0.7
						c0.8,0.2,1.3,0.4,1.3,0.4L405,193.8z"/>
					<path class="st2" d="M432.2,216.4c0,0-0.6-0.1-1.3-0.3c-0.6-0.1-1.3-0.2-1.3-0.2s1.1,0.3,2.2,0.6c1.1,0.3,2.1,0.6,2.1,0.6
						L432.2,216.4z"/>
					<path class="st2" d="M440.4,222.8c-1.9-0.5,0.8,2.7-0.9,1.9c2.2,1.7,4.5,2.7,6.6,3.7C444.2,227,442.4,225.4,440.4,222.8z"/>
					<path class="st2" d="M449.5,230.1c-1-0.6-2.1-1.2-3.3-1.8C447.2,229,448.2,229.6,449.5,230.1z"/>
					<path class="st2" d="M428.6,210.9c0.1,0.4,0.2,1.4,1.9,2.9l-0.6-2C429.5,211.6,429.1,211.2,428.6,210.9z"/>
					<path class="st2" d="M429.9,211.8L429.9,211.8c1.4,1.1,2.4,1.9,2.9,2.2C432.4,213.7,431.6,213,429.9,211.8z"/>
					<path class="st2" d="M428.3,210.7c0.1,0.1,0.2,0.2,0.3,0.2C428.6,210.7,428.5,210.6,428.3,210.7z"/>
					<path class="st2" d="M414.2,200c2.5,0.6,7.4,2.5,3.6-0.9C415.8,198.9,417.9,200.9,414.2,200z"/>
					<path class="st2" d="M427.5,208.2c0,0-0.2-0.2-0.5-0.4c-0.3-0.2-0.8-0.6-1.2-0.9c-0.9-0.7-1.8-1.3-1.8-1.3
						c-0.1,0.3,0.3,1.2-0.9,0.8c0,0,1.1,0.5,2.3,0.9c0.6,0.2,1.1,0.5,1.6,0.6C427.3,208,427.5,208.2,427.5,208.2z"/>
					<polygon class="st2" points="429.5,209.1 427.5,208.2 428.8,209.2 					"/>
					<path class="st2" d="M444.7,224.2c0.9,0.4,1.8,1,2.6,1.6c0.8,0.6,1.7,1.4,2.5,2.2c-0.8-1-1.7-2-2.6-2.8
						c-0.9-0.9-1.9-1.7-2.8-2.6C443.9,222.6,442.6,222.4,444.7,224.2z"/>
					<path class="st2" d="M437.8,217.9c0.1,0.1,0.3,0.1,0.4,0.2C438,217.8,437.9,217.7,437.8,217.9z"/>
					<path class="st2" d="M465.8,244.8c0-0.1,0-0.3-0.1-0.4c-0.1,0-0.1,0.1-0.2,0.1L465.8,244.8z"/>
					<path class="st2" d="M444.3,222.1c-1.3-1.4-2.3-1.9-3.4-2.4c1.2,0.8,2.4,1.8,3.6,2.8C444.7,222.5,444.8,222.4,444.3,222.1z"/>
					<path class="st2" d="M454.5,234.2c-0.5-0.9-1.1-1.9-1.8-2.8C453.1,232.3,454,234.2,454.5,234.2z"/>
					<path class="st2" d="M438.4,218.8c-0.1,0-0.2-0.1-0.3-0.1C438.5,219.2,438.5,219.1,438.4,218.8z"/>
					<path class="st2" d="M438.4,218.8c0.9,0.5,1.7,0.7,2.5,0.9c-1-0.6-1.9-1.2-2.8-1.6C438.3,218.3,438.4,218.6,438.4,218.8z"/>
					<path class="st2" d="M476.7,245.3c-0.6,0.2-1.9-0.5-3.3-1.8c-0.7-0.7-1.4-1.5-2.1-2.4c-0.7-0.9-1.3-1.9-1.8-2.9
						c-3.6-2.8-4.6,2-3.8,6.2c0.5-0.2,0.9-0.6,4.2,2.4c-0.2-0.8-1.4-3-2.3-4.6c-0.8-1.6-1.2-2.8,0.4-1.7c2.2,2,2.8,3.1,3.2,3.9
						c0.3,0.8,0.3,1.4,0.9,2.8c-0.2-1.4,1.4-0.3,3.2,0.9c1.8,1.2,3.6,2.6,4.1,1.4c0,0-0.2-0.2-0.6-0.6c-0.3-0.4-0.8-0.8-1.3-1.3
						c-1-0.9-1.9-1.8-1.9-1.8C475.8,245.4,477.4,246.6,476.7,245.3z"/>
					<path class="st2" d="M460.4,238l-1.4-1.2c1.3,1.6,1.9,3,2.9,5.7c2.4,1.9,3.1,2.1,3.6,2c0,0-1.4-1.7-2.8-3.4
						c-0.7-0.9-1.4-1.7-1.9-2.3c-0.5-0.6-0.9-1-0.9-1L460.4,238z"/>
					<path class="st2" d="M453.4,231c0.5,0,1.1,0.2,1.6,0.4c0.6,0.2,1.1,0.5,1.6,0.7c1,0.3,1.6,0.3,1.2-1.1c-0.9-1-1.6-1.6-2.2-1.9
						c-0.6-0.4-0.9-0.5-1.3-0.7c-0.7-0.2-1.3-0.2-2.6-1.1c6.4,5.7-2.3-1.2,1.7,3.6c-1.4-1-2.5-2-3.6-2.9c1,1.2,1.9,2.3,2.8,3.5
						c0-0.1-0.1-0.1-0.1-0.2l0,0c0,0,0,0,0,0c-0.2-0.4-0.2-0.5,0.1-0.2c0,0,0.1,0.1,0.1,0.1C452.9,231,453.2,231,453.4,231
						c1.6,1.9,0,0.5-0.6,0.1c-0.1,0-0.2,0-0.2,0.1c0,0,0,0,0,0c0,0,0.4,0.3,1,0.8c0.6,0.5,1.4,1.2,2.2,1.9c1.6,1.4,3.2,2.8,3.2,2.8
						c-0.6-0.7-1.2-1.5-2.1-2.4c-0.5-0.5-1-1-1.5-1.5C454.8,232.3,454.2,231.6,453.4,231z"/>
					<path class="st2" d="M423.2,199.1c0.2,0.2,0.1,0.3,0.1,0.4C423.8,199.6,424.1,199.7,423.2,199.1z"/>
					<path class="st2" d="M425.8,201.7c-0.6-0.2-1.4,0-3-1.3c-1.3-1.3,0.3-0.5,0.5-0.9c-1.2-0.4-4.2-1.5-1.2,1.1l0.6,0.2
						c2.7,2.3,5.6,6,5,5.9C427.5,205.1,427.2,203.9,425.8,201.7z"/>
					<path class="st2" d="M440.9,215.6c0,0,0.4,0.2,1,0.6c0.6,0.4,1.3,0.9,2.1,1.4c1.5,1.1,2.9,2.1,2.9,2.1l-2.1-3.3l-0.3,0.6
						C441.5,214.3,441.6,215.5,440.9,215.6z"/>
					<path class="st2" d="M465.9,245.8l-1.7,0.2c0,0,1.1,0.4,2,1c1,0.5,2,1,2,1L465.9,245.8z"/>
					<path class="st2" d="M471.7,252.9l-1.2,0.4c0,0,0.1,0.1,0.3,0.2c0.2,0.1,0.4,0.3,0.7,0.5c0.5,0.4,1,0.8,1,0.8L471.7,252.9z"/>
					<path class="st2" d="M216.4,541.3l-2.1-0.8C215.2,540.9,215.9,541.2,216.4,541.3z"/>
					<path class="st2" d="M230.6,549.1l0.6-0.3C230.4,548.7,230,548.8,230.6,549.1z"/>
					<path class="st2" d="M481,465.5c-2.6,2-5.8,3.8-4.5,4.3l1.6-0.1C479.1,467.8,480.1,466.6,481,465.5z"/>
					<path class="st2" d="M358.9,559.1c0.3,0.1,0.7,0.1,1,0.2c0.7-0.6,1.3-1.2,1.8-1.7C360.9,558.1,360,558.7,358.9,559.1z"/>
					<path class="st2" d="M357.7,564.8l-4.3-0.1C354.4,564.8,355.8,564.9,357.7,564.8z"/>
					<path class="st2" d="M151,482c0,0-0.7-0.4-1.3-0.7c-0.7-0.4-1.3-0.7-1.3-0.7C150.8,484,150.3,482.1,151,482z"/>
					<path class="st2" d="M507.7,339c-0.2,2.7-0.1,4.8,0,6.6C508.1,342.4,508.9,339.7,507.7,339z"/>
					<path class="st2" d="M228.6,532.4c-1.2-0.4-1.8-0.5-1.9-0.2C227.9,532.7,228.7,532.8,228.6,532.4z"/>
					<path class="st2" d="M508.4,353.1c0.1-0.5,0.1-0.9,0.2-1.4c-0.4-1.9-0.6-3.8-0.8-6.1C507.5,348,507.3,350.6,508.4,353.1z"/>
					<path class="st2" d="M206.1,196.9c0.2-0.1,0.5-0.2,0.7-0.3C206.7,196.4,206.5,196.6,206.1,196.9z"/>
					<path class="st2" d="M294.8,176.9c-0.8,0.2-2.2,0.4-3.6,0.6C291.8,177.4,292.9,177.3,294.8,176.9z"/>
					<path class="st2" d="M490.3,284.8C489.4,283.1,490,284.6,490.3,284.8L490.3,284.8z"/>
					<path class="st2" d="M490.5,273.9c0.3,0.3,0.6,0.5,0.9,0.4C491.1,274.3,490.8,274.2,490.5,273.9z"/>
					<path class="st2" d="M516.8,372.8c0,0.1,0,0.1,0,0.2C517.1,372.4,517.1,372.5,516.8,372.8z"/>
					<path class="st2" d="M489.5,281.9c0.2,0.7,0.5,1.5,0.8,2.4C490.2,283.9,490,283.2,489.5,281.9z"/>
					<path class="st2" d="M489.1,282.6c-0.3-0.6-0.5-1.1-0.7-1.6C488.2,280.9,488.1,281.1,489.1,282.6z"/>
					<path class="st2" d="M491.5,287.2c-0.5-1-0.8-2-1.2-2.9c0.1,0.4,0.1,0.6,0,0.5C490.5,285.3,490.9,286,491.5,287.2z"/>
					<path class="st2" d="M121.4,339.7c0.1-0.1,0.1-0.3,0.2-0.4C121.3,337.1,121.3,338.1,121.4,339.7z"/>
					<path class="st2" d="M458,514.6c0.1-0.1,0.1-0.1,0.1-0.2c-0.1,0.1-0.2,0.1-0.3,0.2L458,514.6z"/>
					<path class="st2" d="M453,520.3c1.4-3.3,2.9-4.3,4.9-5.8c0,0-1.1-0.3-2.2-0.5c-0.5-0.1-1.1-0.3-1.5-0.4
						c-0.4-0.1-0.7-0.2-0.7-0.2s-0.1,1.7-0.2,3.4C453.2,518.6,453,520.3,453,520.3z"/>
					<path class="st2" d="M184.8,518.7l3.3,4.4c-3.1-1.4-5.4-3-6.6-3.7c-1.2-0.7-1.3-0.4,0.1,1.8c0.8-0.6,2.2-0.1,3.9,1
						c1.7,1.1,3.7,2.8,5.8,4.3c2.1,1.6,4.2,3.1,5.9,4.1c1.8,0.9,3.2,1.3,4,0.6l2.4,2.7c-0.8-0.6-1.1-0.5-1.9-1.1
						c4.5,5.6,5.8,0.5,12.8,5.7c2.4,1.9,4,3.4,1.9,2.8l6.4,2.5c0.8,0.5,1.1,0.9,0.9,1c-0.2,0.1-0.8-0.1-1.6-0.6c0,0,0.6,0.3,1.4,0.8
						c0.9,0.4,2.1,1,3.2,1.5c2.3,1.1,4.7,2.2,4.7,2.2l-0.1,0.1c1.6,0.1,5.1,0.5,6.7,0.8c2.1,1.6-1.4-0.1-1,0.6c0,0,1.4,0.4,2.8,0.7
						c0.7,0.2,1.4,0.4,1.9,0.5c0.5,0.1,0.9,0.2,0.9,0.2c0.9,0.9,0.1,1.2-1.3,1c-1.4-0.2-3.5-0.9-5.3-1.8c1.6,3,2.8,3.2,4.8,3.6
						c2,0.3,4.8,0.7,9.8,3.9c0,0-0.3-0.1-0.8-0.2c-0.5-0.1-1.1-0.3-1.8-0.5c-1.3-0.4-2.6-0.8-2.6-0.8c1.2,1.7,2.9,2.8,5,3.8
						c2.1,1,4.5,2,7.3,3.7c-0.6-0.6-3.3-2.5-5-4c-1.7-1.6-2.4-2.9,0.7-2.3c1.6,0.8,3.7,1.8,7.1,2c-0.4,1.4,2.9,2,6.9,3l-0.8,1.8
						c2.2,0.4,3.3,0.2,4.2,0c0.9-0.2,1.5-0.5,2.9-0.7c4.8,1.3,5.5,3,6.4,4.4c3.9,0.9,2.7,0,1.6-0.9c-1.1-0.9-1.9-1.8,2.8-1.2
						c1.6,0.5,3.1,0.8,4.5,1.1c1.5,0.2,2.9,0.3,4.4,0.4c3,0.1,6.1,0.1,10.1-0.2c4.5,1-0.9,1.1,0.7,1.8l4.2-1.2
						c1,0.1,0.6,0.6,0.5,0.8c3.5-0.4,0.4-1.9,5.8-2.2c0.8-1.1,3.5-0.1,6.9,0.6c1.7,0.3,3.6,0.6,5.4,0.7c1.9,0.1,3.7-0.1,5.3-0.8
						c1.7,0.4-0.7,1.2-0.2,1.9c4.5-1.1,6.5-1.6,8.2-2.1c1.7-0.5,3.2-1.2,6.8-2.7c0,0,1.6,0.1,3.2,0.2c0.8,0.1,1.6,0.1,2.2,0.1
						c0.6,0,1,0,1,0c-4.8-0.6,0.8-3.3,5.5-5.6c-1.7-0.4-3.2-0.8-4.2-0.9c0,0,1.9-0.6,3.9-1.2c1-0.3,1.9-0.7,2.6-0.9
						c0.7-0.3,1.2-0.4,1.2-0.4c1,0.1,0.4,0.9-0.8,2c0.5-0.3,1-0.6,1.4-0.8c3,0,1.8,1.5,0,3c-1.1-0.1-2.1-0.3-3.1-0.5
						c-1.8,1.5-3.4,3.1-2.8,4.1c0.5-0.3,1.5-0.7,2.6-1c-0.5,0.4-0.8,0.7-0.5,0.9c0.3,0.1,1.1-0.4,2.3-1.2l2.3,1.7l0.3-0.9
						c0,0,2.7-0.3,5.5-0.6c1.4-0.1,2.7-0.4,3.8-0.5c1-0.2,1.7-0.3,1.7-0.3c1.8-1.1,3.4-2.1,5.1-3.3c1.6-1.2,3.3-2.4,5.1-3.7
						c0.9-0.6,1.8-1.2,2.8-1.8c1-0.6,2-1.3,3-2c1.1-0.7,2.2-1.3,3.4-2c1.2-0.7,2.5-1.3,3.8-2.1c-2.1,2.7,0.4,2.6,1,4.4
						c-1.9-0.2-4.1,0.8-6.5,2.2c-1.2,0.7-2.5,1.5-3.9,2.2c-1.4,0.7-2.9,1.3-4.4,1.7c3.3-0.9,2.9,0.2,2.1,0.8c0,0,0.6-0.3,1.6-0.8
						c0.5-0.3,1-0.5,1.7-0.9c0.6-0.3,1.2-0.7,1.9-1.1c2.5-1.5,5-2.9,5-2.9c0.2,0.8,0.8,0.8,1.9,0.6c1-0.2,2.3-0.8,3.8-1.1
						c-1.6-0.9,0.1-2.2,2.7-3.7c0.7-0.4,1.4-0.7,2.1-1.1c0.7-0.4,1.4-0.8,2.1-1.2c1.4-0.8,2.7-1.6,3.7-2.4c0.7,0.8,0.2,2.2-5,4.6
						c3.3-0.4,4.7-2.2,6.1-3.9c1.4-1.7,2.6-3.6,5.7-4.3c-1.2,0.7-1.9,0.9-2.1,1.7c1.2-1.2,3.6-2.6,5.5-3.5c1.9-0.9,3.4-1.5,2.9-0.6
						l-1.2,0.8c2-1.2,4.5-2.7,7.1-4.4c2.6-1.7,5.1-3.8,7.5-5.6c2.3-1.9,4.3-3.9,5.7-5.5c1.4-1.6,2.2-2.9,2-3.6
						c0.3,0.2,1.1,3.2,0.9,3.9c0,0,0.5-1,1.1-2.7c0.6-1.6,1.5-3.8,2.3-5.9c0.8-2.1,1.6-4.3,2.1-5.9c0.5-1.6,0.9-2.7,0.9-2.7
						c0.3,1.3,2.3,1.9,3.6,3c1.4,1.1,2.1,2.6-0.2,5.7c0.9-0.6,1.9-1.4,3.1-2.4c1.1-1,2.4-2.4,3.7-4.4c-1.3,0.9-4.8,0.4-3.6-1.1
						c2.8-1.2,3.7-1.6,4.7-2.3c0.5-0.3,1-0.7,1.8-1.2c0.8-0.5,1.9-1.1,3.4-2.1c-1.8,1.4-2.7-2.8-0.4-5.4c0,0.8,2.8,2,2.2,3.2
						c0,0,0.8-2.2,1.6-4.4c0.4-1.1,0.7-2.3,1-3.1c0.3-0.8,0.4-1.4,0.4-1.4c-0.9,2.1,2,2.1,4,1.1c-0.5,0.2,0.7-1.3,2.1-3.1
						c1.4-1.8,3.1-4,3.6-5.1l-2.8,2.6c3.1-3.9,3.6-6.6,3.9-9.3c0.1-1.4,0.3-2.7,0.7-4.2c0.4-1.5,1.2-3.2,2.4-5.3
						c0,1.4,2.2,4.8,5.1,0.6c-0.1-0.7-0.2-1.9-0.4-3.4c-0.2-1.5-0.3-3.2-0.5-5.2c-0.1-1.9-0.2-4-0.1-6.1c0.1-1.1,0.2-2.1,0.3-3.1
						c0.1-1.1,0.3-2.1,0.6-3.1l1.6-1.1c0,0,0.4-1.6,0.8-3.2c0.2-0.8,0.4-1.6,0.5-2.2c0.1-0.6,0.2-1,0.2-1c0.5,2.4,0.8,6.6,0.8,11.3
						c0.1,2.3-0.1,4.7-0.3,6.9c-0.2,2.2-0.4,4.3-0.7,6c2.4-3,1.5-0.4,4-5.4c1.7-1.4-0.2,3.4-0.9,4.9c0,0,1.6-2.9,3.3-5.8
						c0.9-1.4,1.6-2.9,2.1-4c0.6-1.1,0.9-1.9,0.9-1.9c-1-0.1-0.5-2.7,0.2-5.1c0.5-2.5,1-5,0.2-5.1c0,0-0.2,0.9-0.5,2.2
						c-0.2,0.7-0.3,1.4-0.5,2.2c-0.2,0.8-0.5,1.7-0.7,2.5c-1,3.5-2,6.9-2,6.9c-1-0.2-1.5-2.7-1.2-6.1c0.1-1.7,0.5-3.6,1-5.7
						c0.5-2.1,1.1-4.2,2-6.3c1.6-1.9,2.7,2.9,3.4,3c-0.1-0.3,0-1.1,0.2-1.9c0.2-0.9,0.5-1.9,0.7-3c0.5-2.1,1.2-4.1,1.5-4.4l-0.2,4.1
						c1.2-2.3,1.2-4.6,1.5-6.8c0.2-2.3,0.4-4.7,2.2-7.4c0.3-1,1.5-2.4,2.2-3.6c0.8-1.2,1.4-2.3,0.8-2.6c-3,2.9-10.1,1.7-11.2-0.9
						c0.2-0.3,1.3-2.8,2.6-5.5c0.3-0.7,0.7-1.4,1-2c0.3-0.7,0.6-1.3,0.9-1.9c0.6-1.2,1.1-2.2,1.5-2.7c1.2-1.5,2-0.1,2.8,1.4
						c0.8,1.5,1.5,3.2,2.5,1.8c-0.5-0.2-0.8-2.3-0.9-3.1c0.9-2.1,1.5,1.2,2.1-3.6c-1.9-1.1,1.4-9.8-1.4-2.5c0-2.4,0.3-3.6,0.6-4.9
						c0.3-1.3,0.8-2.8,0.9-5.5c-0.7,0.8-1.7-0.5-2.6-2.6c-0.9-2.1-1.5-5-1.8-7.3c0.5,0.3,1.2-0.7,1.5-1.2c0.1-2.4,0.3-4.5,0.4-6.4
						c0.1-2,0.2-3.8,0.3-5.6c0.1-1.8,0.2-3.6,0.2-5.5c-0.1-1.9-0.1-3.9-0.3-6.1c0.4-0.9,0.7-5.2,1.7-3.5c-0.5-1.3-1.4-2.4-1.8-5.1
						c1.1-5.6,1.1,6.1,2.6,1.8c-1.3-0.2-2.4-7-4-10.7c-0.4,0.4-0.5,1.1-0.5,2.1c0.1,1,0.3,2.2,0.6,3.4c0.6,2.6,1.5,5.4,2.1,7.3
						c-1.3,0.1-2.8-1.4-4.2-4.1c-0.8-1.3-1.4-3-2.2-4.8c-0.8-1.8-1.5-3.8-2.2-6c-0.9-3.5-0.8-4.3-0.3-4.5c0.4-0.1,1.1,0.5,0.7-0.1
						c-0.7-3.4-1.4-5.7-2.2-7.5c-0.9-1.7-1.7-2.9-2.5-4.1c-0.8-1.1-1.5-2.2-2.2-3.7c-0.6-1.5-1.3-3.3-1.7-6.1c0.1-4.8,3-1.3,3.7-2.6
						c1.2,2.7,1.8,5,2.1,7c0.3,2.1,0.4,3.9,0.9,5.8l-0.6-5c1,1.7,2.5,5.4,2.7,7.6c0.1-1-0.2-2.9-0.8-5.4c-0.3-1.2-0.6-2.6-1-4.1
						c-0.5-1.4-1-3-1.5-4.6c-0.5-1.6-1-3.3-1.6-4.9c-0.6-1.6-1.2-3.3-1.8-4.9c-0.6-1.6-1.1-3.2-1.7-4.7c-0.6-1.5-1-2.9-1.5-4.2
						c-1.3-1.5-3.1-4.3-3.1-2.6l1.6,3c0.1,3.3-4.2-5-3-0.9c-0.3-0.5-0.7-0.9-1-1.4c-0.4-0.5-0.8-0.9-1.1-1.4c-0.8-1-1.5-1.9-2.3-3
						c-0.8-1.1-1.5-2.2-2.2-3.4c-0.7-1.2-1.4-2.5-2.1-4l1-1.9c-0.4,0.4,1.1,4.1,2.5,5.4c-1-0.9-1.7-3.3-2.5-5.7
						c-0.4-1.2-0.9-2.3-1.5-3.3c-0.6-0.9-1.4-1.6-2.3-1.9c0,0,0.3,1.1,0.6,2.2c0.2,0.5,0.3,1.1,0.4,1.5c0.1,0.4,0.2,0.7,0.2,0.7
						c-0.7-0.9-1.6-1.7-2.5-2.6c-0.9-0.9-1.9-1.8-2.8-2.7c-0.9-0.9-1.8-2-2.7-3c-0.9-1-1.7-2.1-2.4-3.3c-0.1,3.1,0.9,0.9,1.4,5.3
						c0.4-4.3,7.4,11.8,6.9,5.8c0,2.4,0.6,4,1.3,5.7c0.7,1.7,1.6,3.5,1.8,6.4c0.5-0.4,0.2-2.2,2,2c0.3,0.1,0.7,0.4,0.9,0.7
						c0,0.1,0.1,0.2,0.1,0.3c0-0.1,0-0.2-0.1-0.3c0.2,0.1,0.2,0.1,0-0.1c-0.3-1.1-0.4-2-0.2-2.5c1.1,0.7,2.6,2.7,3.8,4.8
						c1.2,2.1,2.4,4.3,3.2,5.3c0.9,2.6-1.1-0.8-1.1,0.9c0,0,0.6,0.7,1.3,1.5c0.6,0.8,1.2,1.5,1.2,1.5c-1.1,0.9,0.6,7.6-2.5,1.9
						l2,5.4c0.3,1.7,0.6,3.7,1.1,5.6c0.5,1.9,1.2,3.6,1.9,4.9c0.5,2.7,3.3,6.2,1.6,4.2c0,0,0.8,2.1,1.6,4.2c0.7,2.1,1.4,4.3,1.4,4.3
						l-0.3,0.2c1,4.3,2.2,8.8,3.4,13.4c0.9,4.7,1.6,9.6,0.7,14.8c0.3,1.5,0.6,3,0.8,4.8c0.1,1.8,0.2,3.8,0.1,6.3l-1.1,1
						c0.3,1.9-0.1,4.8-0.4,7.4c-0.3,2.6-0.4,4.9,0.1,5.8c-0.9,1-1.4,2.6-1.8,4.6c-0.2,1-0.3,2.1-0.4,3.2c-0.1,1.1-0.3,2.3-0.4,3.6
						c-0.1,1.2-0.2,2.5-0.3,3.7c-0.1,1.2-0.2,2.5-0.3,3.6c-0.3,2.3-0.6,4.5-1.1,6.1l1.4,0.5c-0.1,0.6-0.2,1.1-0.3,1.7
						c-0.1,0.6-0.2,1.1-0.4,1.7c-0.2,1.1-0.4,2.3-0.6,3.5c-0.2,1.2-0.4,2.4-0.5,3.7c-0.2,1.3-0.5,2.6-0.7,4.1l1.4,0
						c-0.2,2.6-1.2,5.7-2.8,8.9c-0.7,1.6-1.6,3.4-2.3,5.1c-0.8,1.8-1.7,3.5-2.4,5.4c-0.3-0.7,0.6-2.5,1.4-3.7
						c-1.6,1.9-2.7,4.1-3.5,6.4c-0.9,2.2-1.7,4.6-2.4,7c-0.7,2.4-1.5,4.7-2.4,6.8c-1,2.1-2,4.2-3.6,5.7c-0.6,2.1-1.6,3.4-2.6,4.5
						c0.1-0.2,0.2-0.3,0.2-0.5c-0.1,0.2-0.3,0.5-0.5,0.8c-0.7,0.7-1.4,1.4-2.2,2.2c0.8-0.6,1.5-1.1,1.9-1.7
						c-0.8,1.4-2.1,3.6-3.1,5.9l-1.8,0.1c-0.1,0.2-0.2,0.3-0.3,0.5c-1.7,1.7-0.5,2,1.1,1.5c-0.4,1.2-0.9,2.3-1.1,3.2
						c-1.5,0.1-2.3,1.6-3.1,3.1c-0.4,0.7-0.9,1.5-1.4,2.1c-0.6,0.6-1.3,1.1-2.2,1.2c0,1-1.8,3.6-3.3,6.2c-1.7,2.6-3.2,5.2-2.7,6.6
						c-0.3-0.2-0.9,0.3,0-0.7c-2,1.9-4.1,3.7-5.3,6l-2.1-0.4c0,0-0.6,1.5-1.2,3c-0.7,1.5-1.3,3-1.3,3c-3.5,1.7-5,2.3-3.3-1.2
						c-1.2,1.9-2.1,3.2-2.8,4.2c-0.8,0.9-1.3,1.6-1.9,2.2c-1.1,1.2-2,2.3-4.2,5.6l-0.5-1.1c-2.1,1.7-4.5,5.6-6.3,5.8
						c-1.5,0.4-3.8,1.7-6.6,3.5c-0.7,0.4-1.4,0.9-2.2,1.4c-0.8,0.5-1.6,1-2.4,1.5c-1.6,1-3.4,2.1-5.2,3.3c-7.4,4.3-16,8.8-23.5,10.8
						c2,1,0.3,1.4-2,1.8c-2.3,0.4-4.9,0.8-4.7,2.2c-1.1-0.4-3.3-0.1-1.2-1.7c-0.9,0.4-1.7,0.8-2.5,1.2c-0.8,0.3-1.6,0.6-2.3,0.8
						c-1.5,0.4-2.8,0.8-4.1,1.1c-2.5,0.7-4.7,1.4-7,3.2c-1.1-0.6,1.3-1.6,0.4-1.9c-0.5,0.3-2.2,1.4-3.1,1.1c-0.9-0.3,0.9-1,2-1.7
						c-1.9,0.6-3.3,1.2-4.4,1.8c-1.1,0.6-1.8,1.1-2.3,1.7c-1,1.2-1.1,2.5-1.1,3.7c-2.1-0.1-3.6,0-5,0.4c-1.3,0.3-2.5,1-3.8,2
						c-1.5-0.5-4-0.9,0.8-2.1c-0.7,0.1-2.1,0.3-3.8,0.5c-0.9,0.1-1.8,0.2-2.8,0.4c-1,0.1-2,0.2-3,0.3c-3.9,0.5-7.5,1.2-7.5,2.1
						c-0.9-0.4-3.9,0.2-4.6,0.4c-1.6,0.1-2.8,0.1-3.8,0.2c-1,0-1.9,0-2.7,0c-1.7,0-3.4,0.1-6.5,0.2l1.7,0.3
						c-2.4,2.4-5.2,0.5-10.2,0.7l0.2-0.2c-2.9-0.4-4.6-0.8-5.7-0.9c-1.2-0.1-1.8-0.1-2.4,0c-0.6,0-1.2,0.1-2.4-0.1
						c-0.6-0.1-1.3-0.2-2.2-0.4c-0.9-0.2-2-0.5-3.4-1l0.4,1.5c-0.7,1.5-3.2,0.7-6.2-0.4c-3.1-1.2-6.7-2.8-10-2.8
						c0,0,0.5,0.3,1.1,0.6c0.5,0.3,1.1,0.6,1.1,0.6c-1.9,0.3-4.1-1.4-6.3-3.1c-2.2-1.8-4.2-3.6-5.8-4.4c-0.7-0.5,1.3-0.1,2.4,0
						c-8.4-4.2-1.6,1.5-8.4,0c-0.5-0.7,0.1-1.2,0.3-1.7c0.1-0.3,0-0.5-0.3-0.8c-0.3-0.3-0.9-0.6-2-1c-1-0.8-4.4-1-8.3-1.6
						c-1.9-0.4-3.9-0.9-5.8-1.5c-0.9-0.3-1.8-0.7-2.7-1.1c-0.8-0.4-1.5-0.9-2.2-1.5c1,1.3,1.9,2.6-1.3,1.8c-1.2-0.4-2.4-1.2-3.7-2
						c-0.7-0.4-1.3-0.9-2-1.3c-0.7-0.5-1.3-1-2-1.5c-2.7-1.9-5.5-3.5-8-3.6c-0.4-0.5-0.5-0.8-0.5-1c-0.9-0.3-2-0.8-3.3-1.4
						c-1.3-0.5-2.6-1.1-3.9-1.8c-2.6-1.3-5.1-2.4-6.5-2.4c-0.1-1.5-1.3-3-3.2-4.4c-1.9-1.4-4.4-2.8-6.7-4.3c-2.3-1.4-4.6-2.7-6.1-4
						c-1.4-1.3-2.1-2.4-1.4-3.3c0,0-0.6-0.5-1.4-1.2c-0.8-0.7-2-1.6-3-2.6c-2.1-2-4.3-3.9-4.3-3.9l0.5-0.1c-0.6-0.7-1.2-1.3-1.8-1.8
						c-0.6-0.5-1.1-1.1-1.6-1.5c-1-0.9-1.8-1.6-2.6-2.2c-1.6-1.1-2.9-1.7-4.2-2.3c-0.9-1.5,0.2-0.8,0.5-0.9
						c-3.2-4.4-5.1-6.7-6.9-8.8c-0.9-1-1.9-1.9-3.1-3c-1.2-1-2.6-2.2-4.4-3.7l0.7-1.6c-0.5-0.4-1.3-1.5-2.1-3
						c-0.9-1.5-1.8-3.6-3-5.8c-0.6-1.1-1.2-2.3-1.8-3.4c-0.6-1.2-1.2-2.4-1.9-3.6c-0.7-1.2-1.4-2.4-2.1-3.6
						c-0.8-1.2-1.5-2.3-2.3-3.4c0.2,0,0.6,0.1,1.1,0.7c-3.6-4.9-5.7-11.8-7.5-17.8c-0.4-1.5-0.9-2.9-1.3-4.2
						c-0.2-0.7-0.5-1.3-0.7-1.9c-0.2-0.6-0.4-1.2-0.7-1.7c-1-2.1-2.2-3.7-3.8-4.3c0,0-0.2-0.4-0.6-1.1c-0.4-0.7-0.8-1.6-1.2-2.5
						c-0.9-1.8-1.7-3.6-1.7-3.6c1.2,5,0.5,4.8-0.4,3.9c-0.9-0.9-2.1-2.6-2-0.4c-0.7-1.9-1.1-4.6-1-6.2c0.1-1.6,0.5-2.1,1.3,0.3
						l0,0.8c0.8,0.3,1.1-0.4,1-1.5c0-1.1-0.3-2.8-0.6-4.4c-0.3-1.7-0.7-3.4-0.8-4.7c-0.2-1.3,0-2.2,0.4-2.2c-0.5-2.5-0.9-5-1.3-7.4
						c-0.4-2.5-0.6-5-0.8-7.4c-0.1-1.2-0.3-2.5-0.3-3.7c-0.1-1.2-0.1-2.5-0.2-3.7c-0.1-2.5-0.3-4.9-0.2-7.4c0-2.4,0.1-4.9,0.1-7.3
						c0.1-2.4,0.3-4.8,0.4-7.2c0.1-1.2,0.1-2.4,0.2-3.6c0.1-1.2,0.2-2.4,0.4-3.5c0.1-1.2,0.2-2.4,0.3-3.5c0.1-1.2,0.2-2.3,0.4-3.5
						c0,0-0.6,0.5-1.2,1c-0.3,0.2-0.6,0.5-0.8,0.7c-0.2,0.2-0.4,0.3-0.4,0.3s0-0.4,0.1-1c0.1-0.6,0.2-1.4,0.3-2.3
						c0.2-1.6,0.5-3.3,0.5-3.3c0.7-1.7,2-2.1,1.3,2.6c0.8-1.1,0.8-3.1,0.5-4.8c-0.3-1.7-0.7-3.2-0.9-3.3c1.3-4.5,1.7-3.5,1.9-1.7
						c0.2,1.8,0.2,4.2,0.5,2.9l0.5-3.8l-0.4,0.8c-0.2-1.6-0.5-2.5-0.6-3.7c-0.1-0.6-0.1-1.3,0-2.2c0.1-0.9,0.3-1.9,0.7-3.3
						c1.2-3.4,1.7-1.5,2.1-2.8c0.1,0,0.3-0.4,0.5-2.1c0,0,0.1-0.5,0.4-1.2c0.2-0.7,0.5-1.7,0.8-2.7c0.6-2,1.2-3.9,1.2-3.9l-2.6,2.7
						c0.1-1.9,0.6-3.8,0.8-4.8c0.1-0.5,0.1-0.8-0.1-0.8c-0.2,0-0.7,0.4-1.4,1.2c2.3-2.3,4.9-9.5,7.8-16.5c0.6-1.8,1.5-3.4,2.1-5
						c0.7-1.6,1.4-3.1,2-4.5c1.3-2.7,2.4-4.6,3-5.3c0.3-1.3,0.7-2.5,1.1-3.8c0.5-1.2,1.1-2.4,1.7-3.6c1.2-2.4,2.7-4.9,4.5-7.5
						c-1.2,1.1-3.3,0.9-0.1-3.6c0.6,1,1.3,1,2.1,0.4c0.8-0.5,1.7-1.7,2.8-2.9c1.1-1.3,2.2-2.7,3.4-3.9c0.6-0.6,1.2-1.2,1.8-1.7
						c0.6-0.4,1.3-0.8,1.9-1c-2,1,0.3-2.1,2.4-5.1c1-1.5,2.1-2.9,2.4-3.7c0.4-0.9,0.1-1.2-1.4-0.4c3.2-3.2,1.3,0.8,4.3-1.2
						c0.7-1.1,1.5-2.3,2.4-3.4c0.9-1.1,1.9-2.1,2.9-3.2c1-1.1,2.1-2.1,3.2-3.2c1.2-1,2.3-2,3.5-3c1.2-1,2.4-2,3.6-3
						c1.3-1,2.5-2,3.8-3c1.3-1,2.5-2.1,3.8-3.1c1.3-1,2.6-2,3.9-3.1c-0.2-0.5-2.4,0.2-0.6-2.2c0,0,0.4-0.1,1.1-0.4
						c0.7-0.2,1.6-0.5,2.5-0.7c1.8-0.5,3.6-1,3.6-1c1-0.9,1-1.8,1.5-2.8c0.2-0.5,0.5-0.9,1.1-1.3c0.6-0.4,1.4-0.7,2.7-1
						c-0.8,0-2,0-0.6-1.1c11.7-6.1,23.2-12.6,35.7-17.7c12.4-5.1,25.7-8.6,39-8.3c-3.7-0.4-1.4-0.9,1.3-1.4
						c-1.8,0.1-0.2-1.3-0.6-1.9c0,0,0.2,0,0.5,0c0.3,0,0.8,0,1.3,0.1c1.1,0.1,2.5,0.1,3.9,0.2c1.4,0.1,2.8,0.1,3.9,0.2
						c0.5,0,1,0.1,1.3,0.1c0.3,0,0.5,0,0.5,0c0.9-1.1,3.9-1.3,6.8-1.6c1.4-0.1,2.8-0.2,4-0.3c1.1-0.2,2-0.4,2.2-0.9l-3.5,0.4
						c2.3-1.2,0.6-2.4-1.6-3.6c-2.2-1.2-5.1-2.3-4.8-3.8c-1.3,0.7-2.9,0.9-4.6,0.9c-1.8,0-3.7-0.2-5.8-0.3c-1-0.1-2.1-0.1-3.2-0.1
						c-0.5,0-1.1,0-1.6,0c-0.5,0-1.1,0.1-1.6,0.2c-2.2,0.3-4.4,1-6.4,2.3c-2.1-0.2,1.5-1.2,0.3-1.7c-2,1.6-4.6,2.5-9.8,3.1l0.5-0.4
						c-0.9,0.2-1.7,0.4-2.5,0.6c-0.8,0.2-1.6,0.4-2.4,0.7c-1.5,0.4-3,0.8-4.3,1.2c-1.4,0.4-2.7,0.6-4,1c-1.3,0.4-2.6,0.7-3.9,1.1
						c-1.3,0.3-2.6,0.7-4,1c-1.4,0.3-2.8,0.8-4.2,1.3c-3,0.9-6.3,1.9-10.1,3.5l1.7,0.8c-3.3,1.3-4.1,1.2-5.8,1.5
						c-2.7,3.6,9-3.9,6.6-0.3c-1.3-0.2-3.4,0.3-5.8,1.2c-2.4,0.9-5.1,2.3-7.8,3.6c-0.7,0.3-1.3,0.7-2,1c-0.6,0.3-1.3,0.7-1.9,1
						c-1.2,0.7-2.4,1.3-3.5,1.8c-2.2,1-4,1.5-5.1,1.3c-4.6,2.9,2.2,0.5-2.3,3.4l-1.7,0l-0.5,1.7c-1.5,0.8-2.8,1.3-3.8,1.6
						c-1,0.2-1.6,0.1-1.9-0.2c0.8-0.4,1.9-1.6,2.6-2.2c-2.2,0.9-4.8,2.9-7,4.7c-1.1,0.9-2.1,1.8-2.9,2.5c-0.8,0.7-1.4,1.2-1.8,1.4
						c0,0,1.1-0.7,2.2-1.4c0.6-0.3,1.1-0.7,1.5-1c0.4-0.3,0.7-0.4,0.7-0.4c-1.4,1.2-2.9,2.4-4.3,3.7c-0.7,0.6-1.5,1.2-2.3,1.9
						c-0.8,0.6-1.5,1.2-2.3,1.9c-3,2.7-6.1,5.2-9,8.1c-1.5,1.4-2.9,2.8-4.3,4.2c-1.4,1.5-2.7,2.9-4,4.4c-2.6,2.9-4.8,6-6.8,8.9
						l1.2-0.4c-0.8,1.1-1.4,2-2,2.8c-0.6,0.8-1.1,1.5-1.5,2.1c-0.9,1.2-1.7,2-2.5,2.8c-0.8,0.8-1.7,1.6-2.7,2.9
						c-1,1.3-2.2,3-3.8,5.5l0.1-0.4c-0.9,2.3-2.2,5.1-4.1,7.8c1-2.9-4.3,3.9-2.9,0.2c-0.3,0.7-0.6,1.3-0.9,1.8
						c-0.2,0.6-0.5,1.1-0.6,1.5c-0.4,0.9-0.7,1.6-0.9,2.2c-0.4,1.2-0.6,1.8-0.6,2.3c-0.1,0.5,0,0.9-0.1,1.7
						c-0.1,0.8-0.2,1.9-0.5,3.9l-1.8,1.1c-0.2,1.4-0.1,2.2-0.4,3.3c-0.2,1.1-0.8,2.5-1.8,5.3c1.1-4.8-3.1,2.7-2-2.8
						c-1.8,2.6-3.1,5-4,7.2c-0.9,2.2-1.4,4.3-1.8,6.2c-0.5,1.8-0.9,3.4-1.5,4.9c-0.6,1.4-1.4,2.7-2.7,3.8c0.5,3.2,1.8,0.8,2.9-2
						c1-2.8,2.2-5.9,1.9-4.3c1-1.1,1.1,0.2,0.7,2.2c-0.3,2-0.9,4.7-1.7,6.5c-0.3,0.9-0.9,1.7-1.5,2.5c-0.7,0.8-1.4,1.6-2.2,2.7
						c-0.8,1-1.6,2.2-2.5,3.8c-0.4,0.8-0.8,1.7-1.2,2.6c-0.3,1-0.6,2.1-0.9,3.3c0.2-1,0-1.1,0.3-2.1c-0.8,1.7-1,3.6-1.2,5.5
						c-0.1,1-0.3,2-0.5,3c-0.2,1-0.5,2.1-1,3.1c1.4,2.9-1.2,5.9,1.1,7l1.1-9.1c-0.2,2.6,0.2,5.2,0.3,8.2c0,1.5,0.1,3,0,4.8
						c-0.1,1.7-0.5,3.6-1.1,5.6c-0.4-0.7-0.7-3.3-0.8-5c-0.5,1.2-0.5,2.4-0.6,3.6c0,1.2-0.1,2.4-0.5,3.7c-0.6-0.2-0.9-1.1-0.9-2.2
						c0-1.2,0.1-2.7,0.3-4.4c0.2-1.7,0.4-3.5,0.5-5.3c0.2-1.8,0.3-3.5,0.1-4.9c-0.7,1.2-0.8,3.9-0.8,5.9c0,2-0.1,3.2-1.2,1.7
						c1.4,2.2,1,4.6,0.4,7.4c-0.4,2.8-1,5.9,0,9.4l-1.4-0.5c0.1,1.1,0.7,3.3,0.6,5.3l-1.8-3.7c0.7,2.8,0.3,5.4-0.2,8.1
						c-0.6,2.6-0.9,5.3-0.4,7.9c-0.2-5.6,0.3-6.2,0.8-6c0.6,0.2,1.2,1.1,1.8-1.2c0.2,1.7,0.4,3.1,0.4,4.3c0.1,1.2,0,2.1-0.1,2.9
						c-0.2,1.6-0.7,2.7-1.2,3.8c-0.5,1.1-1,2.3-1.3,4.1c-0.2,1.8-0.3,4.4,0.2,8.2c-0.4-2.1,0.2-7.9,1.1-4.7c0,1.5-0.2,3.2-0.2,4.7
						c-0.1,1.6-0.2,3-0.5,4c1.6,10.1,1.3-1.7,2.7,2.4c-1.3,3.7,1.5,4.8,2.8,9l-1.4,0.3c0.1,1.4,0.3,2.6,0.5,3.4
						c0.2,0.9,0.4,1.5,0.7,1.9c0.4,0.9,0.9,1.2,1.3,1.4c0.9,0.4,1.6,0.7,2.3,5.9l-2.9-3.8c0,0,0.4,1.3,0.9,2.6
						c0.2,0.6,0.4,1.3,0.6,1.8c0.2,0.5,0.3,0.8,0.3,0.8l-1.9-0.7c1.4,2.7,2.1,4.5,2.7,6.3c0.3,0.9,0.5,1.9,0.7,2.9
						c0.2,1.1,0.5,2.2,0.9,3.6c0.5-1.6,2.7-0.1,4.4,4.7c0.4,3.5-2-1.3,0.8,5.3c-0.7-0.6-1.5-1.2-2.1-2.1c-0.3-0.4-0.6-1-0.7-1.6
						c-0.1-0.6-0.2-1.4-0.1-2.2c-0.5-0.1-1.4-1.2-1.9-1.4c0.2,3.9,3.1,9,4.1,11.4c-0.3-1-0.7-2.1-0.7-2.8c0,0,1.4,2.3,2.9,4.5
						c1.5,2.2,3.1,4.4,3.1,4.4c0.2,1.7-0.7,0.7-1.7-0.3c0.5,0.9,1.1,1.7,1.7,2.5c0.6,0.8,1.2,1.8,2,3.2c-1.4-0.2-2.5,0.5-4.8-3.3
						c0,0,0.3,0.5,0.8,1.4c0.5,0.8,1.2,1.9,1.9,2.9c1.4,2.1,2.9,4.2,2.9,4.2c-0.1,0.4,0.2,1.7,0.4,2.8c0.2,1.1,0.3,1.9-0.2,1.5
						c1.1,2.6,3.3,5.3,5.6,8.2c1.2,1.4,2.5,2.8,3.6,4.4c1.1,1.5,2.1,3.1,3.1,4.7c0.4,0.2,1,0.7,2.1,1.9c1,1.5,1.8,2.9,2.7,4.4
						c0.9,1.4,1.8,2.8,2.8,4.2c1,1.4,2,2.8,3.3,4.2c1.3,1.3,2.7,2.7,4.4,4c0,0,0.4,1.2,0.7,2.5c0.4,1.3,0.8,2.5,0.8,2.5
						c2.4,2.2,1.8,0.6,1.6-0.7c-0.2-1.2,0-2.1,4,1.5c2.8,2.5,3,3.3,2.7,3.8c-0.4,0.5-1.3,0.7-0.5,1.8c1.7,0.9,4.2,2.1,6.6,3.9
						c2.5,1.7,5.1,3.7,7.2,6.7C187.7,521.4,186.5,520,184.8,518.7z M253.1,557.8c-0.8-0.1-2-0.2-3.1-0.4c-1.1-0.2-2.1-0.6-2.4-1.2
						c1.1-0.5,1.9-0.4,2.7,0C251.2,556.6,252,557.2,253.1,557.8z M370.6,559.3c-1,0.8-2.7,0.9-4.7,0.8
						C367.2,559.7,368.8,559.4,370.6,559.3z M499.4,304.2c0,0.1,0.1,0.1,0.1,0.1C500,307.5,499.9,306.3,499.4,304.2z M497.8,297.7
						c-0.4-0.5-0.6-0.4-0.7-0.1c0.5,0.3,1.1,1.7,1.6,3.3C498.9,300.3,498.8,299.4,497.8,297.7z M134.9,320.3l-0.7,1.2
						C134.5,318.5,134.7,319.4,134.9,320.3z"/>
					<path class="st2" d="M357.9,564.1c-0.5-0.2-0.6-0.4-0.8-0.7C356.6,563.8,356.6,564.1,357.9,564.1z"/>
					<path class="st2" d="M151.5,482.3c0-0.1-0.1-0.1-0.1-0.2c-0.1-0.1-0.3-0.1-0.4-0.1L151.5,482.3z"/>
					<path class="st2" d="M519.6,401c-0.5,1.4-0.9,2.1-1.2,2.6C518.8,403.8,519.2,403.2,519.6,401z"/>
					<path class="st2" d="M480.1,267.5c0,0,0.2,0.2,0.4,0.5c0.2,0.3,0.6,0.7,0.9,1.2c0.6,0.9,1.2,1.7,1.2,1.7
						c-1.1-1.7-1.1-2.5-1.5-3.5C480.8,267.7,480.8,268.6,480.1,267.5z"/>
					<path class="st2" d="M464.6,232.4c-0.6-0.3-1-1-1.5-1.3l-0.4,0.6C464.6,233.6,466.3,234.7,464.6,232.4z"/>
					<path class="st2" d="M482,261.6c0.4-0.5,0.2-1.2-0.4-2.2c-0.3-0.5-0.7-1-1.1-1.5c-0.4-0.5-0.9-1.1-1.4-1.7
						c0.1,0.1,0.2,0.3,0.3,0.4c-1,0.1-0.9,0.8-0.2,1.6C479.8,259.2,480.9,260.4,482,261.6z"/>
					<path class="st2" d="M478.7,255.7c-0.6-0.7-1.2-1.5-1.6-2.3C476.3,253.5,477.6,254.4,478.7,255.7z"/>
					<path class="st2" d="M493.8,290.2c-0.3-1.4-1.8-0.2-1.7-1.1c-1-0.4,0.4,1.5,1.5,2.7c0.6,0.6,1.1,1,1.2,0.9
						C495.1,292.6,494.8,291.9,493.8,290.2z"/>
					<polygon class="st2" points="484,257.3 483.4,259.1 485.3,259.9 					"/>
					<path class="st2" d="M495.2,278.9l-1.9-4.6c-0.2,0.2-0.6-0.3-1.1-0.9C493.6,276.1,494.9,279.2,495.2,278.9z"/>
					<path class="st2" d="M492.3,273.4c-0.7-1.4-1.5-2.7-2.2-3.3C490.6,270.8,491.6,272.4,492.3,273.4z"/>
					<path class="st2" d="M488,262.8c0,0,0.1,0.3,0.3,0.7c0.1,0.3,0.3,0.7,0.3,0.7l1.6,3.1c0,0-0.5-1.1-1-2.2
						C488.6,263.8,488,262.8,488,262.8z"/>
					<path class="st2" d="M511.8,328.6l1.4,5.2c0.6,0.5,0.7-1,0.1-3C512.7,329.6,512.1,327.7,511.8,328.6z"/>
					<path class="st2" d="M512,311.8c0.1,1.5-0.2,1.7-0.4,2.6l1.8-0.3L512,311.8z"/>
					<path class="st2" d="M516.2,327.2c0.6,0.4,2.9,7.6,1.5,0.7c-0.3-0.2-0.8-1.7-1.2-2.4c-0.2-0.4-0.4-0.6-0.4-0.4
						C516,325.3,516.1,325.9,516.2,327.2z"/>
					<polygon class="st2" points="513,408.3 513.3,407 510.3,406.6 					"/>
					<path class="st2" d="M491.5,478c4.2-5.2-0.7-2.3,3.2-6.9c0.1-0.9-0.7,0.1-1.5,1c-0.8,0.9-1.6,1.9-1.4,1
						C490.4,476.9,488.9,478.5,491.5,478z"/>
					<path class="st2" d="M491.9,473.2c0.2-0.6,0.5-1.2,0.7-1.9C492.1,472.3,491.9,472.8,491.9,473.2z"/>
					<path class="st2" d="M309.3,177.1c0,0,0.2,0,0.6,0.1c0.4,0,0.9,0.1,1.4,0.2c1,0.1,2,0.3,2,0.3l-2.6-1c0,0-0.3,0.1-0.7,0.2
						C309.7,177,309.3,177.1,309.3,177.1z"/>
					<path class="st2" d="M316.9,174.6l1,1.9l2.4-1.8C319.3,174.8,317.6,175,316.9,174.6z"/>
					<path class="st2" d="M263.3,565.2l0.4-0.4c-0.5-0.7-1.5-1-3.4-1.6L263.3,565.2z"/>
					<polygon class="st2" points="210.8,540.1 211.6,540.7 211,538.2 					"/>
					<path class="st2" d="M171.4,511.1c0.7,0.7,1.5,1.5,2.3,2.2c0.8,0.7,1.7,1.4,2.4,2.1C172.7,512.7,172.6,509.2,171.4,511.1z"/>
				</g>
			</g>
		</g>
	</g>
</g>
</svg>
